<?xml version="1.0" standalone="no"?>
<!DOCTYPE svg PUBLIC "-//W3C//DTD SVG 20010904//EN"
 "http://www.w3.org/TR/2001/REC-SVG-20010904/DTD/svg10.dtd">
<svg version="1.0" xmlns="http://www.w3.org/2000/svg"
 width="1664.000000pt" height="1312.000000pt" viewBox="0 0 1664.000000 1312.000000"
 preserveAspectRatio="xMidYMid meet">

<g transform="translate(0.000000,1312.000000) scale(0.100000,-0.100000)"
fill="#000000" stroke="none">
<path d="M9905 10276 c-16 -6 -61 -28 -100 -49 -38 -20 -72 -37 -76 -37 -4 0
-12 -6 -18 -14 -7 -8 -26 -18 -42 -21 -16 -4 -29 -11 -29 -16 0 -6 -4 -8 -9
-4 -5 3 -17 -2 -25 -11 -9 -8 -16 -12 -16 -8 0 4 -6 -1 -14 -11 -8 -11 -19
-16 -30 -12 -10 4 -15 3 -11 -3 3 -6 0 -10 -8 -10 -8 0 -20 -7 -27 -15 -7 -8
-17 -12 -23 -8 -6 3 -7 1 -3 -5 4 -7 20 -5 50 8 75 34 96 47 88 55 -4 5 -1 5
6 1 8 -5 21 -1 33 10 10 9 19 13 19 9 0 -4 9 0 21 11 12 10 23 18 25 16 4 -2
57 21 84 37 47 28 103 50 112 44 7 -3 8 -1 4 5 -6 10 4 16 25 14 3 -1 6 6 6
14 0 16 -1 16 -42 0z"/>
<path d="M9952 10255 c-11 -12 -10 -15 3 -15 8 0 15 7 15 15 0 18 -2 18 -18 0z"/>
<path d="M9973 10209 c10 -6 14 -15 10 -22 -4 -7 0 -6 10 2 18 14 23 26 8 16
-5 -3 -12 -1 -16 5 -3 5 -12 10 -18 10 -7 0 -4 -5 6 -11z"/>
<path d="M12276 10173 c-4 -4 -13 -8 -20 -9 -7 -1 -29 -9 -47 -17 -19 -9 -41
-17 -49 -19 -8 -2 -18 -7 -21 -11 -3 -5 -13 -9 -21 -11 -9 -1 -24 -8 -33 -16
-9 -8 -27 -15 -38 -17 -35 -5 -49 -12 -43 -22 7 -11 -53 -33 -67 -24 -6 3 -7
1 -3 -5 6 -10 -1 -14 -24 -14 -3 0 -14 -9 -24 -19 -11 -11 -14 -19 -8 -19 6 0
14 5 17 10 4 6 11 8 16 5 5 -4 9 -2 9 4 0 5 10 13 23 16 32 9 87 38 87 47 0 4
9 5 20 3 11 -2 23 2 27 10 5 7 13 14 18 14 16 0 109 45 117 56 4 5 8 6 8 1 0
-5 6 -4 13 2 6 6 27 9 45 8 18 -1 35 1 38 5 6 10 -31 30 -40 22z"/>
<path d="M7576 10134 c-5 -14 -4 -15 9 -4 17 14 19 20 6 20 -5 0 -12 -7 -15
-16z"/>
<path d="M7520 10136 c0 -2 8 -10 18 -17 15 -13 16 -12 3 4 -13 16 -21 21 -21
13z"/>
<path d="M12314 10128 c-4 -7 -3 -10 1 -5 5 4 18 -1 29 -10 21 -18 21 -18 2 5
-22 26 -23 26 -32 10z"/>
<path d="M12370 10080 c-9 -6 -10 -10 -3 -10 6 0 15 5 18 10 8 12 4 12 -15 0z"/>
<path d="M12380 10050 c-8 -5 -10 -10 -5 -10 6 0 17 5 25 10 8 5 11 10 5 10
-5 0 -17 -5 -25 -10z"/>
<path d="M9429 10023 c-13 -17 -13 -17 6 -3 11 8 22 16 24 17 2 2 0 3 -6 3 -6
0 -17 -8 -24 -17z"/>
<path d="M10601 10030 c-19 -11 5 -23 25 -12 14 8 14 10 2 15 -8 3 -21 2 -27
-3z"/>
<path d="M7286 10022 c-2 -4 9 -8 25 -8 33 -2 33 4 1 11 -12 2 -24 1 -26 -3z"/>
<path d="M12380 10019 c0 -5 -4 -7 -10 -4 -18 11 -10 -1 15 -23 19 -17 25 -18
25 -7 0 8 -7 15 -15 15 -9 0 -12 6 -9 15 4 8 3 15 0 15 -3 0 -6 -5 -6 -11z"/>
<path d="M9385 10011 c-3 -5 0 -13 6 -17 7 -4 9 -3 5 4 -3 5 0 13 6 15 9 4 10
6 1 6 -6 1 -14 -3 -18 -8z"/>
<path d="M10548 9998 c-2 -4 -12 -9 -23 -11 -22 -4 -62 -22 -85 -37 -8 -5 -26
-15 -40 -20 -14 -6 -41 -20 -60 -31 -19 -12 -37 -21 -40 -21 -3 0 -21 -6 -40
-14 -19 -8 -36 -15 -38 -14 -1 0 -10 -6 -18 -15 -9 -8 -25 -15 -37 -15 -20 -1
-20 -2 -5 -11 24 -13 47 -9 85 18 17 13 36 23 42 23 6 0 11 5 11 11 0 6 7 9
15 5 8 -3 15 -1 15 4 0 6 6 10 13 10 7 0 19 9 26 19 8 11 22 18 33 16 10 -2
18 0 18 4 0 10 49 26 65 22 6 -2 7 1 3 5 -10 9 41 36 53 28 5 -3 9 0 9 5 0 6
6 11 14 11 8 0 17 4 21 9 3 6 -4 9 -15 8 -11 -1 -21 -5 -22 -9z"/>
<path d="M10085 9980 c3 -5 8 -10 11 -10 2 0 4 5 4 10 0 6 -5 10 -11 10 -5 0
-7 -4 -4 -10z"/>
<path d="M7201 9964 c0 -11 3 -14 6 -6 3 7 2 16 -1 19 -3 4 -6 -2 -5 -13z"/>
<path d="M11845 9967 c-15 -19 -16 -34 -2 -34 7 0 13 11 13 24 2 26 2 26 -11
10z"/>
<path d="M7265 9940 c-3 -6 1 -7 9 -4 18 7 21 14 7 14 -6 0 -13 -4 -16 -10z"/>
<path d="M7857 9929 c7 -7 15 -10 18 -7 3 3 -2 9 -12 12 -14 6 -15 5 -6 -5z"/>
<path d="M10108 9928 c5 -5 16 -8 23 -6 8 3 3 7 -10 11 -17 4 -21 3 -13 -5z"/>
<path d="M12430 9918 c0 -12 3 -18 7 -14 11 10 12 36 2 36 -5 0 -9 -10 -9 -22z"/>
<path d="M11715 9900 c-3 -5 -1 -10 4 -10 6 0 11 5 11 10 0 6 -2 10 -4 10 -3
0 -8 -4 -11 -10z"/>
<path d="M7875 9890 c3 -5 11 -10 16 -10 6 0 7 5 4 10 -3 6 -11 10 -16 10 -6
0 -7 -4 -4 -10z"/>
<path d="M7005 9881 c-3 -5 -2 -12 3 -15 5 -3 9 1 9 9 0 17 -3 19 -12 6z"/>
<path d="M10130 9876 c0 -2 7 -7 16 -10 8 -3 12 -2 9 4 -6 10 -25 14 -25 6z"/>
<path d="M11620 9866 c0 -2 7 -6 15 -10 8 -3 15 -1 15 4 0 6 -7 10 -15 10 -8
0 -15 -2 -15 -4z"/>
<path d="M6940 9850 c0 -5 12 -10 28 -10 21 0 24 2 12 10 -20 13 -40 13 -40 0z"/>
<path d="M7895 9850 c-16 -7 -17 -9 -3 -9 9 -1 20 4 23 9 7 11 7 11 -20 0z"/>
<path d="M11595 9851 c-3 -5 -1 -12 5 -16 5 -3 10 1 10 9 0 18 -6 21 -15 7z"/>
<path d="M6832 9809 c-12 -5 -25 -15 -28 -24 -3 -8 -11 -12 -17 -8 -6 4 -7 1
-2 -7 6 -10 11 -9 22 6 8 10 18 19 23 19 4 0 12 3 16 7 4 4 19 5 33 1 14 -3
23 -2 18 3 -11 12 -39 13 -65 3z"/>
<path d="M7906 9811 c-3 -5 1 -11 9 -14 9 -4 12 -1 8 9 -6 16 -10 17 -17 5z"/>
<path d="M11525 9810 c-4 -6 -10 -8 -14 -6 -4 3 -8 -1 -8 -8 0 -7 6 -13 14
-13 7 0 11 3 8 5 -3 3 3 11 13 18 9 8 12 14 5 14 -6 0 -15 -5 -18 -10z"/>
<path d="M7931 9764 c0 -11 3 -14 6 -6 3 7 2 16 -1 19 -3 4 -6 -2 -5 -13z"/>
<path d="M12475 9770 c-19 -8 -19 -9 3 -9 12 -1 22 4 22 9 0 6 -1 10 -2 9 -2
0 -12 -4 -23 -9z"/>
<path d="M6726 9749 c2 -4 -2 -9 -8 -12 -10 -4 -10 -7 0 -18 11 -12 13 -12 10
1 -2 8 3 14 11 15 22 0 24 21 2 21 -11 0 -18 -3 -15 -7z"/>
<path d="M11381 9734 c0 -11 3 -14 6 -6 3 7 2 16 -1 19 -3 4 -6 -2 -5 -13z"/>
<path d="M12490 9746 c0 -2 7 -6 15 -10 8 -3 15 -1 15 4 0 6 -7 10 -15 10 -8
0 -15 -2 -15 -4z"/>
<path d="M11320 9720 c-18 -5 -39 -15 -46 -24 -6 -9 -14 -13 -17 -10 -3 3 -16
0 -29 -7 -12 -7 -26 -12 -30 -11 -4 1 -5 -5 -2 -13 7 -18 18 -19 36 -2 24 22
105 60 115 54 5 -3 10 0 10 8 0 8 -1 15 -1 14 -1 -1 -17 -5 -36 -9z"/>
<path d="M11731 9714 c0 -11 3 -14 6 -6 3 7 2 16 -1 19 -3 4 -6 -2 -5 -13z"/>
<path d="M6680 9709 c0 -5 5 -7 10 -4 6 3 10 8 10 11 0 2 -4 4 -10 4 -5 0 -10
-5 -10 -11z"/>
<path d="M12505 9710 c-3 -5 -2 -10 3 -10 6 0 9 -8 7 -17 -1 -10 0 -13 2 -6 2
6 14 14 26 16 22 4 21 4 -1 6 -13 0 -20 6 -17 11 3 6 2 10 -4 10 -5 0 -13 -4
-16 -10z"/>
<path d="M6645 9700 c3 -5 8 -10 11 -10 2 0 4 5 4 10 0 6 -5 10 -11 10 -5 0
-7 -4 -4 -10z"/>
<path d="M6610 9679 c0 -5 5 -7 10 -4 6 3 10 8 10 11 0 2 -4 4 -10 4 -5 0 -10
-5 -10 -11z"/>
<path d="M7963 9675 c0 -8 4 -15 9 -15 4 0 8 7 8 15 0 8 -4 15 -8 15 -5 0 -9
-7 -9 -15z"/>
<path d="M6560 9671 c0 -5 7 -12 16 -15 14 -5 15 -4 4 9 -14 17 -20 19 -20 6z"/>
<path d="M11385 9670 c-3 -5 -1 -10 4 -10 6 0 11 5 11 10 0 6 -2 10 -4 10 -3
0 -8 -4 -11 -10z"/>
<path d="M12533 9661 c0 -11 5 -17 9 -15 7 5 12 -22 6 -29 -2 -1 7 -13 19 -26
12 -13 20 -27 18 -31 -3 -4 2 -13 10 -20 8 -7 12 -17 8 -23 -3 -6 -1 -7 5 -3
7 4 12 2 12 -3 0 -6 7 -11 15 -11 13 0 14 4 5 20 -6 11 -15 18 -19 15 -5 -2
-14 1 -20 9 -9 11 -8 15 5 20 16 6 16 8 -1 20 -10 7 -15 18 -11 24 4 7 1 12
-9 12 -9 0 -14 4 -11 8 6 10 -21 52 -34 52 -5 0 -8 -9 -7 -19z"/>
<path d="M6489 9633 c-13 -16 -12 -17 4 -4 9 7 17 15 17 17 0 8 -8 3 -21 -13z"/>
<path d="M7910 9629 c0 -5 5 -7 10 -4 6 3 10 8 10 11 0 2 -4 4 -10 4 -5 0 -10
-5 -10 -11z"/>
<path d="M11130 9620 c0 -5 -6 -10 -13 -10 -20 0 -58 -35 -49 -45 4 -5 -2 -5
-13 -1 -16 6 -17 5 -8 -5 9 -9 19 -6 46 17 19 16 42 34 53 41 17 11 17 12 2
12 -10 1 -18 -3 -18 -9z"/>
<path d="M7991 9600 c-9 -5 -4 -9 13 -12 14 -3 26 -2 26 2 0 12 -26 19 -39 10z"/>
<path d="M6353 9555 c0 -8 4 -12 9 -9 5 3 6 10 3 15 -9 13 -12 11 -12 -6z"/>
<path d="M7940 9561 c0 -5 5 -13 10 -16 6 -3 10 -2 10 4 0 5 -4 13 -10 16 -5
3 -10 2 -10 -4z"/>
<path d="M10958 9551 c-16 -10 -26 -20 -23 -23 3 -3 -8 -8 -25 -12 -18 -3 -44
-15 -59 -25 -15 -11 -34 -21 -42 -23 -8 -2 -16 -5 -19 -8 -14 -14 -50 -29 -50
-21 0 5 -9 11 -20 14 -16 4 -20 0 -19 -16 0 -12 3 -16 6 -9 4 9 8 10 18 2 10
-8 27 -5 67 12 29 12 59 28 66 35 7 7 22 13 33 13 10 0 19 4 19 8 0 4 10 9 22
9 13 1 28 9 34 17 6 9 13 14 15 11 3 -2 5 5 6 15 1 11 1 20 0 19 -1 0 -14 -8
-29 -18z"/>
<path d="M8030 9549 c0 -5 5 -7 10 -4 6 3 10 8 10 11 0 2 -4 4 -10 4 -5 0 -10
-5 -10 -11z"/>
<path d="M11005 9550 c-4 -6 -3 -10 2 -9 20 3 27 -2 13 -11 -12 -7 -10 -9 8
-7 26 2 27 4 8 23 -17 17 -23 17 -31 4z"/>
<path d="M11737 9530 c3 -11 7 -20 9 -20 2 0 4 9 4 20 0 11 -4 20 -9 20 -5 0
-7 -9 -4 -20z"/>
<path d="M6235 9520 c-4 -6 -14 -9 -23 -8 -10 2 -18 -5 -20 -17 -2 -15 -1 -16
6 -7 10 15 18 15 43 2 11 -6 16 -5 16 5 0 8 -7 11 -16 7 -14 -5 -14 -3 -2 11
7 9 11 17 8 17 -3 0 -9 -5 -12 -10z"/>
<path d="M6305 9520 c3 -5 8 -10 11 -10 2 0 4 5 4 10 0 6 -5 10 -11 10 -5 0
-7 -4 -4 -10z"/>
<path d="M12613 9487 c3 -7 10 -11 16 -9 6 1 11 -3 11 -9 0 -5 4 -8 9 -4 5 3
12 1 16 -5 3 -5 -1 -10 -9 -10 -9 0 -16 -8 -16 -19 0 -24 16 -36 26 -20 4 8 3
9 -4 5 -7 -4 -12 -1 -12 9 0 9 4 14 9 11 14 -9 20 18 7 35 -14 19 -59 33 -53
16z"/>
<path d="M6133 9473 c-44 -15 -52 -26 -31 -39 6 -4 8 -3 5 3 -4 6 0 14 9 17
23 9 26 8 18 -6 -6 -10 -5 -10 8 -1 8 7 17 10 20 8 3 -3 8 3 11 15 3 11 4 19
4 19 -1 -1 -21 -8 -44 -16z"/>
<path d="M8075 9460 c-3 -5 1 -10 10 -10 9 0 13 5 10 10 -3 6 -8 10 -10 10 -2
0 -7 -4 -10 -10z"/>
<path d="M10673 9439 c-1 -17 2 -27 7 -24 12 7 13 42 3 48 -5 3 -9 -8 -10 -24z"/>
<path d="M9845 9440 c-3 -5 -1 -10 4 -10 6 0 11 5 11 10 0 6 -2 10 -4 10 -3 0
-8 -4 -11 -10z"/>
<path d="M11506 9425 c4 -8 8 -15 10 -15 2 0 4 7 4 15 0 8 -4 15 -10 15 -5 0
-7 -7 -4 -15z"/>
<path d="M12051 9419 c23 -23 25 -23 33 -3 3 8 2 12 -4 9 -6 -3 -10 -2 -10 2
0 5 -9 9 -19 10 -19 2 -19 1 0 -18z"/>
<path d="M6072 9410 c0 -14 2 -19 5 -12 2 6 2 18 0 25 -3 6 -5 1 -5 -13z"/>
<path d="M9825 9410 c3 -5 8 -10 11 -10 2 0 4 5 4 10 0 6 -5 10 -11 10 -5 0
-7 -4 -4 -10z"/>
<path d="M11325 9411 c-3 -5 -2 -12 3 -15 5 -3 9 1 9 9 0 17 -3 19 -12 6z"/>
<path d="M10455 9351 c-11 -3 -21 -12 -22 -18 -4 -19 34 -16 41 3 8 21 6 22
-19 15z"/>
<path d="M12624 9351 c4 -6 1 -11 -6 -11 -8 0 -9 -3 -3 -8 15 -11 36 -54 38
-79 0 -12 4 -20 7 -18 3 2 12 -5 19 -17 10 -16 10 -19 -1 -13 -7 3 -4 -1 6 -9
11 -9 16 -16 11 -16 -5 0 -1 -6 9 -13 9 -7 18 -20 20 -30 1 -9 11 -24 22 -32
11 -8 14 -15 7 -15 -7 0 -13 -5 -13 -11 0 -6 7 -8 16 -5 12 4 15 2 10 -9 -3
-8 -2 -15 2 -15 12 0 12 -74 -1 -83 -7 -5 -2 -6 12 -2 16 5 21 4 17 -4 -8 -12
21 -4 42 12 8 7 12 5 12 -6 0 -9 8 -18 18 -21 10 -4 52 -75 105 -184 48 -97
87 -180 87 -184 0 -4 14 -31 31 -60 17 -29 31 -54 30 -56 -1 -1 12 -32 28 -67
17 -36 30 -66 28 -68 -1 -2 6 -11 16 -21 9 -10 15 -21 12 -26 -3 -5 -1 -11 4
-14 5 -3 7 -15 4 -25 -3 -11 3 -28 14 -38 31 -34 69 -106 235 -453 71 -149 91
-190 199 -415 35 -71 64 -132 64 -135 5 -16 89 -187 99 -199 6 -8 12 -21 12
-30 3 -34 17 -61 39 -75 17 -11 22 -21 18 -37 -4 -15 -3 -20 6 -15 7 4 14 -2
19 -15 6 -15 11 -19 16 -10 4 6 2 19 -5 27 -7 9 -14 22 -15 30 -1 7 -12 27
-23 43 -12 16 -21 34 -21 39 0 5 -67 146 -150 313 -82 166 -147 306 -144 310
2 4 0 9 -4 11 -10 4 -62 107 -62 123 0 6 -6 17 -12 23 -7 7 -13 16 -13 20 -1
4 -6 17 -13 28 -6 12 -8 24 -5 28 3 3 1 6 -5 6 -7 0 -12 4 -12 9 0 4 -36 83
-80 175 -44 91 -80 171 -80 176 0 5 -9 14 -20 20 -11 6 -20 19 -20 30 0 21
-148 331 -162 341 -5 3 -10 16 -11 27 -1 12 -5 22 -9 22 -4 0 -8 7 -8 16 0 14
-40 92 -64 123 -6 7 -11 19 -11 25 -2 28 -18 65 -26 60 -5 -3 -9 3 -9 14 0 33
-39 102 -58 102 -24 0 -42 19 -35 36 3 9 -1 14 -12 14 -9 0 -14 -4 -11 -8 2
-4 0 -14 -5 -22 -9 -13 -9 -13 -7 0 1 8 -4 25 -11 38 -7 13 -14 33 -16 44 -6
27 -34 58 -54 58 -13 0 -13 2 -2 9 10 6 10 13 2 28 -5 11 -7 23 -4 27 3 3 1 6
-6 6 -7 0 -9 5 -6 10 3 6 1 10 -5 10 -6 0 -8 5 -5 10 3 6 3 10 -2 10 -4 0 -14
15 -21 33 -26 61 -36 79 -55 89 -14 7 -17 7 -13 -1z m179 -341 c3 -11 1 -23
-4 -26 -5 -3 -9 6 -9 20 0 31 6 34 13 6z"/>
<path d="M10310 9320 c0 -5 5 -10 11 -10 5 0 7 5 4 10 -3 6 -8 10 -11 10 -2 0
-4 -4 -4 -10z"/>
<path d="M11825 9304 c0 -18 5 -23 22 -22 12 1 20 4 18 7 -3 2 1 11 7 20 8 9
3 8 -10 -3 -17 -15 -21 -16 -17 -4 3 8 0 18 -7 20 -8 4 -13 -3 -13 -18z"/>
<path d="M10309 9288 c-9 -30 -6 -36 14 -29 28 11 34 31 8 31 -12 0 -21 -1
-22 -2z"/>
<path d="M11060 9286 c0 -2 7 -7 16 -10 8 -3 12 -2 9 4 -6 10 -25 14 -25 6z"/>
<path d="M11601 9233 c13 -24 26 -43 31 -43 12 0 10 8 -7 27 -8 10 -22 27 -31
38 -8 11 -5 1 7 -22z"/>
<path d="M12301 9246 c-10 -12 -8 -13 8 -9 12 3 18 9 15 14 -7 12 -10 11 -23
-5z"/>
<path d="M11087 9239 c7 -7 15 -10 18 -7 3 3 -2 9 -12 12 -14 6 -15 5 -6 -5z"/>
<path d="M11310 9232 c0 -5 7 -9 15 -9 8 0 12 4 9 9 -3 4 -9 8 -15 8 -5 0 -9
-4 -9 -8z"/>
<path d="M6099 9193 c-1 -5 -1 -10 -1 -13 0 -3 -6 -11 -14 -18 -9 -8 -14 -9
-14 -2 0 6 -5 8 -10 5 -19 -12 -1 -23 34 -22 31 1 33 2 18 15 -15 12 -15 13 6
9 12 -3 20 -1 17 3 -3 5 3 13 12 19 10 6 13 11 6 11 -6 0 -15 -4 -18 -10 -3
-5 -13 -10 -21 -10 -8 0 -12 5 -9 10 3 6 4 10 1 10 -3 0 -7 -3 -7 -7z"/>
<path d="M8083 9145 c0 -8 7 -15 15 -15 12 0 12 3 2 15 -7 8 -13 15 -15 15 -1
0 -2 -7 -2 -15z"/>
<path d="M7175 9140 c-4 -6 -11 -8 -16 -5 -5 4 -9 2 -9 -4 0 -5 9 -9 20 -8 11
1 20 7 20 14 0 16 -6 17 -15 3z"/>
<path d="M9968 9125 c-6 -14 -14 -25 -18 -25 -5 0 -7 -8 -6 -17 0 -11 -12 -25
-33 -35 -19 -9 -37 -22 -41 -28 -4 -7 -10 -11 -14 -11 -17 3 -20 0 -7 -8 13
-8 55 10 71 30 3 3 15 9 28 13 12 4 22 11 22 16 0 5 5 21 12 37 16 39 18 53 7
53 -5 0 -15 -11 -21 -25z"/>
<path d="M11340 9125 c-11 -13 -10 -14 4 -9 9 3 16 10 16 15 0 13 -6 11 -20
-6z"/>
<path d="M12012 9127 c-10 -12 -9 -16 4 -21 18 -7 34 0 34 15 0 6 -4 8 -9 5
-5 -4 -11 -1 -13 5 -2 7 -8 6 -16 -4z"/>
<path d="M7112 9117 c-8 -10 -6 -13 9 -14 19 -2 26 11 10 21 -5 3 -14 0 -19
-7z"/>
<path d="M11360 9100 c18 -12 30 -13 30 -2 0 4 -10 9 -22 9 -18 2 -20 0 -8 -7z"/>
<path d="M5823 9065 c0 -8 4 -12 9 -9 5 3 6 10 3 15 -9 13 -12 11 -12 -6z"/>
<path d="M11195 9053 c-5 -14 -3 -15 6 -6 6 6 19 9 28 6 14 -4 14 -3 1 6 -21
15 -27 14 -35 -6z"/>
<path d="M7328 9053 c7 -3 16 -2 19 1 4 3 -2 6 -13 5 -11 0 -14 -3 -6 -6z"/>
<path d="M10780 9010 c0 -5 5 -10 11 -10 5 0 7 5 4 10 -3 6 -8 10 -11 10 -2 0
-4 -4 -4 -10z"/>
<path d="M11703 8999 c9 -5 17 -19 17 -30 0 -25 23 -20 28 6 3 10 0 15 -7 11
-6 -4 -11 0 -11 8 0 10 -9 16 -22 16 -21 -1 -21 -2 -5 -11z"/>
<path d="M9830 8986 c0 -2 7 -7 16 -10 8 -3 12 -2 9 4 -6 10 -25 14 -25 6z"/>
<path d="M12776 8937 c3 -10 9 -15 12 -12 3 3 0 11 -7 18 -10 9 -11 8 -5 -6z"/>
<path d="M10592 8923 c2 -10 11 -24 21 -31 9 -7 15 -17 12 -22 -3 -4 1 -13 9
-19 8 -7 17 -23 20 -36 4 -14 13 -25 22 -25 8 0 21 -15 29 -34 8 -19 19 -38
25 -41 6 -4 8 -10 5 -15 -3 -4 2 -13 10 -20 8 -7 15 -25 15 -41 0 -15 4 -30 8
-33 5 -3 33 10 63 29 30 19 75 46 102 60 51 28 56 36 30 56 -15 11 -16 11 -6
-1 11 -11 2 -19 -50 -44 -34 -17 -76 -41 -91 -54 -31 -24 -38 -23 -41 6 -2 26
-44 102 -56 102 -6 0 -7 5 -3 12 4 6 -7 23 -27 40 -19 16 -27 27 -19 23 8 -4
5 2 -7 12 -15 12 -21 26 -18 41 2 13 0 20 -6 17 -5 -4 -9 -2 -9 2 0 5 -9 14
-21 21 -18 11 -20 11 -17 -5z"/>
<path d="M5806 8884 c-4 -10 -1 -22 5 -28 9 -8 10 -8 5 1 -3 6 0 13 6 16 10 3
10 8 2 16 -9 10 -13 8 -18 -5z"/>
<path d="M10855 8891 c-3 -5 -2 -12 3 -15 5 -3 9 1 9 9 0 17 -3 19 -12 6z"/>
<path d="M10880 8852 c0 -6 5 -14 10 -17 6 -4 7 -11 4 -17 -4 -7 -2 -8 5 -4 9
6 9 12 -1 24 -7 10 -14 19 -15 21 -2 2 -3 -1 -3 -7z"/>
<path d="M7505 8809 c-4 -6 -5 -12 -2 -15 2 -3 7 2 10 11 7 17 1 20 -8 4z"/>
<path d="M9977 8779 c4 -13 8 -18 11 -10 2 7 -1 18 -6 23 -8 8 -9 4 -5 -13z"/>
<path d="M8290 8755 c0 -5 5 -17 10 -25 5 -8 10 -10 10 -5 0 6 -5 17 -10 25
-5 8 -10 11 -10 5z"/>
<path d="M10000 8750 c0 -5 5 -10 11 -10 5 0 7 5 4 10 -3 6 -8 10 -11 10 -2 0
-4 -4 -4 -10z"/>
<path d="M5807 8703 c-6 -13 -9 -108 -2 -102 3 4 7 29 10 58 4 48 1 61 -8 44z"/>
<path d="M7080 8620 c0 -5 5 -10 11 -10 5 0 7 5 4 10 -3 6 -8 10 -11 10 -2 0
-4 -4 -4 -10z"/>
<path d="M12655 8610 c-3 -5 -1 -10 4 -10 6 0 11 5 11 10 0 6 -2 10 -4 10 -3
0 -8 -4 -11 -10z"/>
<path d="M5795 8568 c-4 -13 -6 -29 -5 -37 1 -8 -3 -10 -11 -5 -9 5 -10 2 -4
-12 4 -10 11 -35 15 -54 8 -38 10 -38 14 -2 2 13 -1 25 -6 28 -4 3 -6 10 -3
15 8 11 17 89 12 89 -3 0 -8 -10 -12 -22z"/>
<path d="M11140 8575 c0 -8 5 -15 10 -15 6 0 10 7 10 15 0 8 -4 15 -10 15 -5
0 -10 -7 -10 -15z"/>
<path d="M8900 8568 c0 -6 -3 -9 -6 -5 -4 3 -27 -5 -53 -20 -25 -14 -46 -24
-46 -23 0 2 -21 -7 -47 -19 -27 -12 -48 -28 -48 -36 0 -10 -9 -15 -27 -14 -16
1 -68 -18 -118 -42 -110 -53 -122 -55 -130 -18 -7 32 -22 39 -22 12 0 -24 35
-73 50 -70 7 1 17 8 22 15 6 7 17 14 25 16 8 1 25 7 36 14 12 6 24 8 28 5 3
-3 6 -1 6 5 0 7 9 12 20 12 11 0 20 4 20 8 0 5 11 14 25 20 14 6 25 8 25 3 0
-4 11 -6 25 -3 16 3 25 11 25 22 0 11 12 22 30 29 17 5 30 8 30 5 0 -3 12 4
26 15 15 11 30 19 34 16 4 -3 11 2 14 11 3 8 14 14 23 13 10 -1 26 1 36 6 21
9 47 -10 47 -35 0 -10 7 -23 15 -30 8 -7 15 -21 15 -31 0 -11 6 -19 13 -19 8
0 14 7 14 15 0 8 -4 12 -8 9 -5 -3 -11 8 -15 23 -4 15 -12 31 -18 35 -7 5 -6
8 4 8 10 0 7 5 -8 16 -12 8 -20 19 -17 24 3 4 -2 11 -11 14 -24 9 -34 7 -34
-6z"/>
<path d="M10980 8547 c0 -19 16 -31 24 -18 3 5 -1 14 -9 21 -12 10 -15 10 -15
-3z"/>
<path d="M10096 8537 c3 -10 9 -15 12 -12 3 3 0 11 -7 18 -10 9 -11 8 -5 -6z"/>
<path d="M10126 8492 c-7 -12 15 -82 26 -82 11 0 10 2 -8 38 -8 18 -13 36 -9
42 3 5 4 10 1 10 -3 0 -7 -4 -10 -8z"/>
<path d="M6715 8461 c-3 -6 4 -9 15 -8 11 1 20 5 20 9 0 11 -28 10 -35 -1z"/>
<path d="M5790 8410 c0 -5 5 -10 10 -10 6 0 10 5 10 10 0 6 -4 10 -10 10 -5 0
-10 -4 -10 -10z"/>
<path d="M8940 8415 c0 -7 39 -12 49 -5 7 4 -1 7 -18 8 -17 0 -31 -1 -31 -3z"/>
<path d="M8284 8394 c-18 -14 -18 -14 6 -3 31 14 36 19 24 19 -6 0 -19 -7 -30
-16z"/>
<path d="M11131 8392 c0 -7 -5 -10 -11 -7 -17 11 -11 -4 11 -26 15 -15 24 -18
32 -10 8 8 7 11 -5 11 -9 0 -19 10 -21 23 -2 12 -5 16 -6 9z"/>
<path d="M5801 8374 c0 -11 3 -14 6 -6 3 7 2 16 -1 19 -3 4 -6 -2 -5 -13z"/>
<path d="M8100 8382 c0 -5 5 -13 12 -20 16 -16 29 -15 22 2 -6 16 -34 30 -34
18z"/>
<path d="M12125 8380 c-4 -6 -1 -10 4 -10 6 0 10 -4 9 -9 -2 -5 2 -10 7 -11 6
0 11 5 13 13 3 17 -25 31 -33 17z"/>
<path d="M8940 8370 c-13 -8 -12 -10 3 -10 9 0 17 5 17 10 0 12 -1 12 -20 0z"/>
<path d="M12072 8345 c4 -32 22 -38 26 -9 2 13 -4 24 -13 28 -13 5 -16 0 -13
-19z"/>
<path d="M7785 8350 c-3 -5 -1 -10 4 -10 6 0 11 5 11 10 0 6 -2 10 -4 10 -3 0
-8 -4 -11 -10z"/>
<path d="M10188 8331 c18 -32 30 -34 17 -4 -5 10 -7 21 -7 26 1 4 -5 7 -13 7
-12 0 -11 -5 3 -29z"/>
<path d="M8018 8344 c6 -3 10 -10 6 -15 -3 -5 -2 -9 3 -9 10 0 40 19 33 21
-32 5 -52 7 -42 3z"/>
<path d="M11190 8341 c0 -6 -6 -11 -12 -9 -19 3 -68 -11 -68 -21 0 -4 10 -7
23 -6 12 1 34 3 49 4 17 1 25 6 24 16 -3 19 -16 32 -16 16z"/>
<path d="M12490 8340 c-12 -8 -10 -10 8 -10 13 0 20 4 17 10 -7 12 -6 12 -25
0z"/>
<path d="M12446 8324 c-5 -14 -4 -15 9 -4 17 14 19 20 6 20 -5 0 -12 -7 -15
-16z"/>
<path d="M7775 8320 c4 -6 11 -8 16 -5 14 9 11 15 -7 15 -8 0 -12 -5 -9 -10z"/>
<path d="M7070 8299 c0 -5 -4 -8 -9 -4 -5 3 -13 0 -17 -6 -4 -7 -3 -9 4 -5 5
3 13 0 15 -6 4 -10 6 -10 6 0 1 7 5 10 11 7 6 -3 7 1 4 9 -7 18 -14 21 -14 5z"/>
<path d="M7713 8294 c0 -8 6 -14 14 -14 7 0 13 4 13 9 0 5 -6 11 -13 14 -8 3
-14 -1 -14 -9z"/>
<path d="M8890 8303 c0 -3 9 -17 19 -32 10 -14 21 -37 22 -51 2 -14 8 -28 13
-32 5 -3 11 -16 13 -28 2 -11 13 -34 25 -51 18 -24 20 -32 9 -38 -10 -6 -9
-10 5 -15 9 -3 14 -9 11 -13 -4 -3 3 -19 14 -34 11 -16 16 -29 10 -29 -5 0 1
-12 14 -26 19 -21 38 -66 36 -88 0 -3 10 -16 22 -30 l21 -24 58 29 c60 30 78
35 78 20 0 -5 14 -40 31 -78 17 -37 30 -70 30 -73 0 -3 8 -13 16 -22 9 -10 13
-18 9 -18 -4 0 0 -7 8 -15 14 -14 18 -14 45 0 17 8 39 15 51 15 11 0 20 4 20
9 0 5 10 13 23 17 23 7 123 54 402 189 88 42 184 88 214 101 82 37 84 39 61
84 l-20 38 36 21 c19 12 38 21 42 21 4 0 18 7 30 16 23 16 21 26 -12 69 -15
19 -16 19 -6 -8 15 -41 14 -43 -27 -56 -55 -18 -83 -44 -81 -75 1 -14 8 -26
14 -26 16 0 11 -32 -7 -42 -41 -22 -215 -103 -219 -102 -3 1 -14 -5 -25 -12
-11 -8 -28 -14 -38 -14 -9 0 -20 -6 -23 -13 -2 -7 -14 -14 -27 -14 -12 -1 -23
-7 -25 -13 -2 -5 -13 -10 -23 -10 -11 0 -18 -4 -14 -9 3 -5 -4 -12 -15 -16
-11 -4 -77 -33 -145 -66 -68 -32 -130 -59 -138 -59 -7 0 -22 -7 -33 -15 -37
-28 -48 -18 -98 95 -27 61 -53 113 -57 115 -7 5 -69 -24 -79 -37 -5 -7 -28
-11 -48 -9 -13 1 -55 84 -55 108 0 7 -4 10 -8 8 -4 -3 -12 9 -18 25 -5 17 -7
30 -4 30 4 0 -1 6 -10 13 -9 6 -19 28 -22 47 -3 19 -12 41 -18 50 -19 23 -51
93 -51 113 -1 10 -7 22 -15 26 -8 5 -12 15 -9 23 4 9 -1 14 -13 15 -10 1 -19
-1 -19 -4z"/>
<path d="M12462 8295 c-7 -8 -9 -15 -4 -15 5 0 15 7 22 15 16 19 -1 19 -18 0z"/>
<path d="M10210 8280 c0 -5 7 -10 16 -10 8 0 12 5 9 10 -3 6 -10 10 -16 10 -5
0 -9 -4 -9 -10z"/>
<path d="M8098 8265 c-4 -4 -2 -18 3 -32 5 -14 6 -30 2 -36 -3 -7 -3 -9 1 -5
5 4 18 3 31 -2 17 -7 25 -5 29 6 3 9 -1 14 -13 14 -21 0 -37 16 -42 43 -2 11
-7 16 -11 12z"/>
<path d="M7848 8243 c6 -2 18 -2 25 0 6 3 1 5 -13 5 -14 0 -19 -2 -12 -5z"/>
<path d="M8120 8241 c0 -6 5 -13 10 -16 6 -3 10 1 10 9 0 9 -4 16 -10 16 -5 0
-10 -4 -10 -9z"/>
<path d="M7794 8206 c-9 -20 -9 -23 2 -19 8 3 14 14 14 24 0 25 -3 24 -16 -5z"/>
<path d="M11160 8201 c0 -6 5 -13 10 -16 6 -3 10 1 10 9 0 9 -4 16 -10 16 -5
0 -10 -4 -10 -9z"/>
<path d="M7685 8169 c-4 -5 -4 -13 -1 -16 3 -4 6 0 6 8 0 11 2 11 10 -1 6 -9
10 -10 10 -3 0 17 -17 25 -25 12z"/>
<path d="M7804 8094 c-17 -14 -17 -15 -1 -10 13 4 16 2 10 -6 -10 -18 -11 -48
-1 -48 4 0 8 5 8 10 0 6 8 10 18 11 14 0 14 2 -3 9 -11 5 -14 9 -6 9 10 1 11
4 2 14 -6 8 -8 17 -4 20 13 13 -4 7 -23 -9z"/>
<path d="M11560 8090 c0 -19 20 -27 33 -13 8 7 -11 33 -24 33 -5 0 -9 -9 -9
-20z"/>
<path d="M11949 8075 c-11 -10 14 -53 28 -48 18 7 16 23 -1 23 -8 0 -16 7 -18
16 -2 9 -6 13 -9 9z"/>
<path d="M7256 7972 c-3 -5 1 -9 9 -9 8 0 15 4 15 9 0 4 -4 8 -9 8 -6 0 -12
-4 -15 -8z"/>
<path d="M7500 7953 c5 -2 8 -9 4 -14 -3 -5 0 -9 6 -9 15 0 7 23 -8 26 -7 1
-8 0 -2 -3z"/>
<path d="M7520 7910 c0 -5 5 -10 11 -10 5 0 7 5 4 10 -3 6 -8 10 -11 10 -2 0
-4 -4 -4 -10z"/>
<path d="M7204 7886 c-13 -10 -23 -11 -31 -4 -9 7 -13 7 -13 -2 0 -9 -14 -10
-49 -5 -36 5 -51 3 -58 -7 -4 -7 -21 -20 -37 -28 -16 -8 -31 -21 -34 -28 -3
-9 15 -3 44 14 27 15 67 29 89 30 47 2 72 7 81 17 4 4 16 7 26 7 10 0 18 5 18
10 0 14 -13 12 -36 -4z"/>
<path d="M7657 7874 c-15 -8 -33 -12 -40 -8 -6 4 -9 3 -4 -1 5 -6 -239 -136
-298 -159 -5 -2 -7 -7 -3 -11 4 -4 14 -2 22 4 12 10 17 8 26 -8 13 -25 28 -26
55 -4 l20 16 -20 -7 c-35 -13 -39 -12 -39 9 0 13 6 20 17 19 9 -1 14 2 11 7
-8 13 10 11 26 -3 12 -11 12 -10 2 3 -10 13 -10 18 2 22 7 3 19 0 25 -6 10 -9
12 -9 9 1 -2 9 36 34 101 67 57 30 109 59 114 64 15 15 7 13 -26 -5z"/>
<path d="M6115 7838 c-11 -13 -20 -28 -21 -35 -1 -6 -14 -28 -29 -47 -14 -19
-26 -38 -25 -41 3 -12 -62 -117 -68 -110 -4 3 -12 -9 -18 -27 -9 -27 -16 -33
-41 -34 -16 -1 -35 -4 -42 -8 -18 -11 -13 -26 10 -26 11 0 18 4 15 9 -8 12 13
8 42 -7 12 -7 22 -11 23 -10 0 2 2 16 3 31 1 16 7 32 14 36 6 4 33 45 58 92
25 46 58 105 72 131 14 26 29 45 32 43 4 -2 7 2 7 10 0 21 -9 19 -32 -7z"/>
<path d="M8705 7840 c-3 -6 1 -7 9 -4 18 7 21 14 7 14 -6 0 -13 -4 -16 -10z"/>
<path d="M7185 7779 c11 -20 21 -29 31 -25 9 3 18 6 20 6 2 0 4 10 4 23 -1 21
-1 21 -15 3 -8 -11 -18 -16 -22 -13 -3 4 -3 7 2 7 4 0 2 7 -5 15 -22 26 -31
16 -15 -16z"/>
<path d="M12326 7704 c-17 -12 -17 -14 -4 -14 9 0 20 5 23 11 11 17 2 18 -19
3z"/>
<path d="M6892 7660 c3 -22 -6 -30 -62 -62 -139 -78 -177 -91 -267 -89 -93 3
-95 -14 -3 -22 51 -4 77 -2 97 9 16 7 36 14 45 14 22 0 88 31 88 42 0 4 32 22
70 39 63 29 69 34 56 48 -8 9 -15 20 -14 24 0 5 -3 12 -7 15 -4 4 -5 -4 -3
-18z"/>
<path d="M11241 7648 c-5 -13 -5 -27 -1 -31 14 -15 45 -14 52 2 6 14 7 14 7
-2 1 -9 -10 -22 -23 -28 -20 -10 -24 -18 -23 -56 0 -43 19 -70 60 -87 9 -3 9
-7 -1 -13 -17 -13 -12 -34 36 -136 23 -49 42 -91 42 -93 0 -2 11 -28 25 -58
14 -30 30 -67 36 -83 27 -73 64 -143 75 -143 19 0 124 51 124 60 0 5 -16 6
-35 3 -30 -5 -36 -2 -45 18 -9 20 -10 21 -7 3 5 -25 -9 -54 -26 -54 -7 0 -18
12 -25 28 -35 73 -82 185 -80 187 2 1 14 8 27 15 19 10 25 10 32 -1 7 -11 9
-10 9 5 0 18 -20 19 -61 2 -13 -6 -25 16 -64 110 l-48 116 23 18 c21 16 21 17
4 25 -11 5 -22 7 -26 7 -5 -1 -19 7 -32 19 -28 25 -29 75 0 96 12 9 19 26 19
48 0 39 -6 43 -30 19 -9 -9 -19 -13 -23 -9 -4 4 -1 10 6 12 17 6 15 23 -3 23
-9 0 -20 -10 -24 -22z"/>
<path d="M12395 7607 c8 -28 -13 -57 -40 -57 -14 0 -25 5 -25 10 0 21 -31 9
-40 -16 -11 -27 -26 -29 -72 -9 -14 5 -18 2 -18 -14 0 -22 -14 -28 -25 -11 -4
6 -11 8 -16 4 -5 -3 -7 -10 -3 -15 3 -5 10 -7 15 -4 5 4 9 1 9 -6 0 -7 -10 -9
-25 -7 -13 3 -22 1 -19 -3 10 -16 51 -9 69 11 11 13 31 20 52 20 25 0 36 5 40
18 3 14 14 18 50 18 55 -1 74 19 55 56 -7 12 -10 15 -7 5z"/>
<path d="M8824 7588 c-3 -4 2 -8 10 -8 8 0 17 4 20 8 3 5 -2 9 -10 9 -8 0 -17
-4 -20 -9z"/>
<path d="M11337 7594 c-4 -4 -3 -12 1 -18 4 -6 7 -13 8 -16 7 -33 30 -73 45
-81 19 -10 68 -103 76 -142 1 -10 15 -39 29 -64 14 -27 24 -56 21 -69 -2 -13
1 -22 6 -21 6 1 13 -9 16 -23 3 -14 12 -26 19 -28 15 -3 15 9 0 45 -6 15 -11
31 -10 35 1 4 -18 49 -41 100 -24 51 -49 108 -56 126 -8 17 -19 32 -27 32 -7
0 -27 29 -43 65 -31 67 -33 69 -44 59z"/>
<path d="M6250 7560 c0 -5 5 -10 11 -10 5 0 7 5 4 10 -3 6 -8 10 -11 10 -2 0
-4 -4 -4 -10z"/>
<path d="M6312 7553 c-7 -10 -10 -12 -7 -6 4 8 1 11 -9 7 -25 -9 -19 -24 9
-24 18 0 25 5 25 20 0 24 -2 25 -18 3z"/>
<path d="M8090 7560 c0 -6 7 -10 15 -10 8 0 15 2 15 4 0 2 -7 6 -15 10 -8 3
-15 1 -15 -4z"/>
<path d="M5835 7531 c6 -11 2 -13 -19 -7 -17 4 -26 2 -26 -5 0 -7 3 -10 6 -6
3 3 16 2 29 -3 18 -7 23 -5 21 5 -1 8 -6 18 -11 22 -4 4 -5 2 0 -6z"/>
<path d="M7675 7455 c-93 -46 -179 -86 -189 -89 -14 -5 -16 -10 -9 -17 8 -8
20 -6 41 5 16 8 33 12 37 8 5 -4 5 -2 2 4 -4 8 6 14 28 18 19 4 35 12 35 18 0
6 3 8 6 5 4 -4 19 2 34 13 16 11 33 20 39 20 6 0 11 5 11 10 0 6 3 9 8 8 4 -1
34 11 67 27 73 36 68 32 64 43 -2 6 -80 -27 -174 -73z"/>
<path d="M5755 7520 c-3 -5 -1 -10 4 -10 6 0 11 5 11 10 0 6 -2 10 -4 10 -3 0
-8 -4 -11 -10z"/>
<path d="M5773 7474 c0 -7 8 -12 18 -11 9 1 15 6 12 12 -5 16 -30 15 -30 -1z"/>
<path d="M5900 7359 c0 -11 -4 -17 -10 -14 -5 3 -7 0 -4 -8 10 -26 30 -15 26
15 -5 33 -12 37 -12 7z"/>
<path d="M5820 7366 c0 -3 9 -10 20 -16 11 -6 20 -8 20 -6 0 3 -9 10 -20 16
-11 6 -20 8 -20 6z"/>
<path d="M5923 7355 c0 -8 4 -12 9 -9 5 3 6 10 3 15 -9 13 -12 11 -12 -6z"/>
<path d="M7485 7270 c3 -5 8 -10 11 -10 2 0 4 5 4 10 0 6 -5 10 -11 10 -5 0
-7 -4 -4 -10z"/>
<path d="M5847 7259 c7 -7 15 -10 18 -7 3 3 -2 9 -12 12 -14 6 -15 5 -6 -5z"/>
<path d="M10278 7262 c-4 -11 -136 -74 -268 -127 -109 -45 -190 -82 -250 -115
-44 -25 -175 -84 -215 -98 -16 -5 -74 -31 -127 -56 -54 -25 -98 -42 -98 -38 0
4 -4 2 -8 -4 -9 -14 -200 -105 -224 -107 -19 -1 -25 -32 -8 -42 6 -3 10 -15
10 -26 0 -10 5 -19 12 -19 6 0 9 -3 5 -6 -3 -4 0 -13 8 -21 21 -20 19 -31 -7
-38 -13 -4 -61 -25 -107 -47 -79 -37 -111 -42 -111 -17 0 6 -9 24 -21 40 -11
16 -17 29 -13 29 3 0 1 7 -6 15 -11 13 -15 14 -29 1 -27 -24 -172 -87 -183
-80 -6 4 -8 3 -5 -3 4 -6 -5 -14 -21 -17 -48 -12 -272 -111 -272 -121 0 -5 12
-38 27 -72 23 -51 32 -62 50 -60 13 1 25 7 27 13 3 7 -2 10 -12 8 -12 -3 -23
10 -40 48 -14 33 -19 54 -12 56 6 2 17 10 25 19 8 8 19 12 24 9 5 -4 11 -2 13
2 4 12 137 72 157 72 10 0 21 3 25 8 4 4 11 7 14 8 4 0 37 15 74 33 37 18 73
29 79 25 8 -4 9 -3 5 4 -4 7 -3 12 3 12 5 0 15 2 23 5 9 4 23 -13 41 -48 28
-57 33 -72 18 -63 -11 7 -83 -28 -81 -40 1 -4 -4 -10 -11 -13 -7 -2 -9 1 -5 8
5 8 1 8 -16 1 -13 -6 -31 -13 -40 -16 -10 -4 -18 -11 -18 -17 0 -6 -3 -8 -6
-4 -4 3 -19 0 -34 -8 -15 -8 -31 -11 -35 -7 -5 4 -4 1 0 -7 6 -11 4 -13 -9 -8
-10 4 -19 1 -23 -8 -3 -9 -10 -15 -17 -14 -29 4 -46 -2 -46 -16 0 -17 16 -20
25 -5 4 6 11 7 17 4 6 -4 13 -2 17 4 4 7 18 13 31 15 13 2 26 9 28 15 2 6 10
8 19 5 10 -4 14 -2 10 4 -6 10 37 29 56 25 4 -1 7 3 7 8 0 6 6 10 13 9 25 -3
37 2 58 24 12 12 19 17 15 10 -8 -14 32 1 107 41 26 14 47 22 47 18 0 -4 4 -2
8 3 6 9 45 29 64 34 4 1 56 26 114 56 59 30 111 52 115 50 4 -3 9 0 11 5 2 6
13 12 25 12 12 1 19 7 16 15 -6 16 -23 17 -23 1 0 -6 -3 -9 -6 -5 -4 3 -42
-12 -85 -34 l-79 -39 -26 57 c-15 32 -29 62 -32 67 -3 5 5 7 16 4 12 -4 20 -2
17 2 -6 10 51 31 61 22 4 -4 4 -2 0 5 -8 14 28 28 45 17 8 -4 9 -3 5 5 -7 11
32 33 47 24 4 -2 7 0 7 6 0 5 9 8 20 6 11 -2 18 0 15 4 -4 8 31 24 48 22 4 -1
7 4 7 9 0 6 6 10 14 10 8 0 40 13 71 30 31 16 61 27 66 24 5 -3 9 0 9 6 0 7 7
10 15 6 8 -3 15 -1 15 5 0 6 5 7 10 4 6 -3 10 -1 10 6 0 6 8 9 20 6 11 -3 18
-1 14 4 -5 8 9 13 29 10 4 0 7 4 7 10 0 6 7 8 16 5 8 -3 12 -2 9 4 -3 6 -1 11
4 11 20 3 26 5 49 18 13 7 30 10 39 7 11 -4 13 -2 9 9 -3 10 1 15 11 15 9 0
24 6 32 14 20 18 131 67 131 59 0 -4 6 1 13 12 8 10 19 15 26 11 6 -4 14 -1
17 7 3 9 14 12 29 9 17 -3 27 1 31 12 3 9 10 13 15 10 5 -3 9 0 9 5 0 6 5 11
11 11 5 0 7 -6 4 -12 -4 -7 0 -5 8 4 8 10 17 15 20 11 4 -3 7 -1 7 6 0 7 5 9
10 6 6 -3 10 -2 10 4 0 6 7 7 17 4 12 -5 14 -3 8 7 -6 10 -4 12 8 7 10 -3 17
-2 17 3 0 5 7 6 17 3 11 -4 14 -3 9 6 -5 8 0 10 19 7 15 -3 28 -6 29 -8 8 -13
26 -61 26 -69 0 -5 -11 -14 -25 -19 -14 -5 -25 -14 -25 -20 0 -6 -4 -8 -10 -5
-5 3 -10 2 -10 -2 0 -11 -70 -43 -94 -43 -9 0 -30 -7 -47 -15 -16 -9 -35 -13
-41 -9 -7 5 -8 3 -3 -6 5 -8 3 -11 -6 -8 -8 3 -18 -1 -24 -9 -5 -7 -20 -15
-33 -18 -12 -2 -29 -11 -37 -19 -8 -8 -24 -18 -35 -21 -11 -3 -20 -11 -20 -16
0 -5 -3 -8 -7 -7 -15 3 -93 -25 -111 -41 -10 -9 -24 -17 -32 -19 -8 -2 -19 -7
-24 -12 -13 -13 45 -1 61 11 7 6 18 7 25 3 11 -6 11 -5 0 8 -10 13 -9 15 11
13 14 -2 54 14 91 36 37 21 72 39 78 39 5 0 22 8 36 19 15 10 38 22 52 26 14
4 28 12 31 17 3 5 18 11 34 14 15 3 45 14 67 25 21 11 43 17 48 14 6 -3 10 -2
10 3 0 5 18 17 40 27 22 10 40 22 40 27 0 5 -12 38 -27 73 -25 58 -45 79 -55
57z"/>
<path d="M5735 7250 c3 -5 8 -10 11 -10 2 0 4 5 4 10 0 6 -5 10 -11 10 -5 0
-7 -4 -4 -10z"/>
<path d="M5818 7247 c-5 -13 -12 -191 -12 -309 -1 -43 -4 -78 -8 -78 -5 0 -8
-4 -8 -8 0 -4 8 -8 18 -8 15 0 17 12 19 86 3 171 9 286 15 295 3 6 0 15 -7 22
-10 9 -14 9 -17 0z"/>
<path d="M5880 7256 c0 -3 9 -10 20 -16 11 -6 20 -8 20 -6 0 3 -9 10 -20 16
-11 6 -20 8 -20 6z"/>
<path d="M5865 7230 c-4 -6 3 -10 14 -10 25 0 27 6 6 13 -8 4 -17 2 -20 -3z"/>
<path d="M7600 7013 c0 -7 7 -13 15 -13 8 0 15 6 15 13 0 8 -7 14 -15 14 -8 0
-15 -6 -15 -14z"/>
<path d="M10327 6999 c-26 -16 -50 -29 -54 -29 -3 0 -14 -7 -24 -16 -9 -8 -25
-17 -35 -18 -10 -2 -20 -8 -22 -15 -2 -7 19 0 47 14 27 15 57 28 66 29 8 1 21
8 27 14 7 7 16 12 20 12 10 0 81 -140 71 -140 -5 0 -3 -4 2 -8 6 -4 28 -41 49
-82 21 -41 46 -84 55 -94 9 -11 11 -16 4 -13 -6 4 -18 2 -25 -5 -31 -29 -76
-46 -88 -34 -8 8 -10 7 -5 -6 5 -11 0 -18 -17 -24 -13 -4 -25 -7 -28 -6 -3 0
-13 -4 -22 -9 -9 -5 -19 -5 -22 0 -3 4 -16 6 -28 4 -20 -4 -28 7 -71 96 -27
56 -54 101 -60 101 -8 0 -8 -3 -2 -8 6 -4 11 -14 13 -22 6 -25 92 -199 102
-205 6 -4 10 0 10 7 1 8 5 7 14 -5 13 -17 19 -15 97 26 46 24 101 50 122 56
40 13 49 39 22 61 -8 7 -15 16 -15 20 0 4 -35 80 -78 168 l-78 160 -47 -29z"/>
<path d="M10148 6908 c9 -9 15 -9 24 0 9 9 7 12 -12 12 -19 0 -21 -3 -12 -12z"/>
<path d="M13553 6904 c-4 -10 -8 -12 -12 -5 -5 8 -13 6 -27 -5 -10 -8 -13 -12
-5 -8 8 4 12 3 8 -3 -3 -5 -20 -8 -37 -7 -20 1 -33 -3 -37 -13 -6 -16 25 -85
36 -79 3 2 7 -8 8 -24 2 -28 35 -91 65 -124 24 -26 23 -10 -2 37 -11 21 -18
42 -15 47 3 4 -1 14 -8 22 -7 7 -19 28 -26 46 -7 17 -17 32 -22 32 -23 0 1 26
44 49 26 13 47 31 47 38 0 18 -9 16 -17 -3z"/>
<path d="M10115 6880 c3 -5 8 -10 11 -10 2 0 4 5 4 10 0 6 -5 10 -11 10 -5 0
-7 -4 -4 -10z"/>
<path d="M13865 6880 c3 -5 8 -10 11 -10 2 0 4 5 4 10 0 6 -5 10 -11 10 -5 0
-7 -4 -4 -10z"/>
<path d="M5710 6859 c0 -4 8 -9 18 -11 10 -3 19 0 19 6 0 7 -9 12 -19 12 -10
0 -18 -3 -18 -7z"/>
<path d="M9710 6853 c0 -6 -11 -14 -25 -17 -16 -4 -23 -11 -19 -18 5 -7 0 -9
-14 -6 -13 4 -20 2 -19 -6 1 -6 -8 -11 -20 -10 -12 0 -19 -4 -16 -9 4 -6 -1
-8 -11 -4 -11 5 -15 3 -10 -5 5 -8 2 -9 -10 -5 -10 4 -15 3 -11 -3 3 -5 -7
-13 -22 -16 -15 -4 -34 -13 -41 -21 -7 -7 -20 -13 -28 -13 -11 0 -9 -8 7 -39
11 -22 21 -49 22 -60 1 -12 8 -21 17 -22 8 0 0 -7 -19 -15 -19 -9 -45 -13 -58
-9 -13 3 -23 1 -23 -5 0 -5 7 -10 15 -10 8 0 15 -4 15 -9 0 -6 20 -3 45 6 25
8 45 20 45 26 0 21 -33 97 -42 97 -5 0 -6 5 -2 12 4 7 3 8 -4 4 -7 -4 -12 -2
-12 3 0 10 7 13 26 10 4 0 10 4 13 9 3 5 50 30 104 56 90 43 120 67 103 83 -3
4 -6 2 -6 -4z"/>
<path d="M10116 6852 c6 -4 14 -17 18 -29 7 -23 26 -32 26 -13 0 6 -4 10 -10
10 -5 0 -10 9 -10 20 0 12 -7 20 -17 20 -11 0 -14 -3 -7 -8z"/>
<path d="M13891 6821 c-7 -5 -11 -15 -9 -22 3 -10 8 -7 17 9 13 24 12 26 -8
13z"/>
<path d="M10148 6783 c7 -3 16 -2 19 1 4 3 -2 6 -13 5 -11 0 -14 -3 -6 -6z"/>
<path d="M9847 6749 c7 -7 15 -10 18 -7 3 3 -2 9 -12 12 -14 6 -15 5 -6 -5z"/>
<path d="M6186 6733 c-6 -14 -5 -15 5 -6 7 7 10 15 7 18 -3 3 -9 -2 -12 -12z"/>
<path d="M6122 6735 c4 -4 3 -14 -3 -21 -7 -9 -6 -14 3 -20 7 -4 10 -4 6 1 -4
4 -3 14 3 21 7 9 6 14 -3 20 -7 4 -10 4 -6 -1z"/>
<path d="M9828 6710 c-24 -12 -38 -15 -40 -8 -2 6 -11 3 -22 -8 -11 -10 -14
-20 -8 -22 14 -4 112 38 112 49 0 12 0 12 -42 -11z"/>
<path d="M6190 6688 c0 -4 4 -8 9 -8 6 0 12 4 15 8 3 5 -1 9 -9 9 -8 0 -15 -4
-15 -9z"/>
<path d="M6225 6680 c-3 -5 -1 -10 4 -10 6 0 11 5 11 10 0 6 -2 10 -4 10 -3 0
-8 -4 -11 -10z"/>
<path d="M6260 6680 c-9 -6 -10 -10 -3 -10 6 0 15 5 18 10 8 12 4 12 -15 0z"/>
<path d="M9376 6671 c-4 -5 -2 -12 3 -15 5 -4 12 -2 15 3 4 5 2 12 -3 15 -5 4
-12 2 -15 -3z"/>
<path d="M6176 6656 c6 -15 36 -17 31 -3 -2 6 -10 11 -19 13 -10 1 -15 -3 -12
-10z"/>
<path d="M12836 6662 c-3 -6 -3 -17 0 -26 5 -12 0 -16 -19 -16 -31 0 -51 -23
-42 -50 6 -18 17 -25 38 -21 5 1 6 -3 3 -8 -7 -11 14 -28 34 -26 8 1 22 3 31
3 9 1 16 9 16 17 0 10 -4 12 -10 6 -6 -6 -15 -5 -24 5 -8 8 -23 14 -34 14 -10
0 -19 7 -19 15 0 11 12 15 43 16 36 0 39 2 19 10 -13 5 -28 6 -34 3 -6 -4 -2
6 7 20 13 19 15 30 8 37 -7 7 -13 7 -17 1z"/>
<path d="M13864 6658 c6 -36 19 -56 38 -61 l20 -6 -21 20 c-11 11 -21 26 -21
34 0 8 -4 16 -9 19 -5 4 -8 0 -7 -6z"/>
<path d="M6267 6653 c-4 -3 -7 -11 -7 -17 0 -6 5 -5 12 2 6 6 9 14 7 17 -3 3
-9 2 -12 -2z"/>
<path d="M6220 6635 c0 -2 6 -8 13 -14 10 -8 14 -7 14 2 0 8 -6 14 -14 14 -7
0 -13 -1 -13 -2z"/>
<path d="M12867 6633 c-4 -3 -7 -11 -7 -17 0 -6 5 -5 12 2 6 6 9 14 7 17 -3 3
-9 2 -12 -2z"/>
<path d="M9376 6608 c3 -5 10 -6 15 -3 13 9 11 12 -6 12 -8 0 -12 -4 -9 -9z"/>
<path d="M14000 6606 c0 -7 7 -19 16 -27 8 -7 13 -21 11 -31 -3 -10 -1 -21 4
-24 10 -6 10 40 1 71 -8 23 -32 32 -32 11z"/>
<path d="M6255 6600 c-3 -5 -1 -10 4 -10 6 0 11 5 11 10 0 6 -2 10 -4 10 -3 0
-8 -4 -11 -10z"/>
<path d="M9919 6598 c12 -16 11 -18 -10 -19 -13 -1 -28 -1 -32 0 -5 1 -5 -4
-1 -10 5 -9 2 -10 -10 -6 -11 4 -15 3 -10 -4 4 -7 0 -9 -13 -5 -14 4 -19 1
-20 -14 -2 -26 5 -25 66 6 56 29 59 35 34 55 -16 13 -17 12 -4 -3z"/>
<path d="M5453 6580 c2 -14 8 -23 13 -21 10 4 7 22 -7 36 -6 6 -8 1 -6 -15z"/>
<path d="M6075 6590 c-3 -6 3 -22 14 -36 20 -26 21 -26 21 -5 0 12 -7 24 -15
27 -8 4 -12 10 -9 15 3 5 3 9 0 9 -3 0 -8 -5 -11 -10z"/>
<path d="M9385 6580 c3 -5 8 -10 11 -10 2 0 4 5 4 10 0 6 -5 10 -11 10 -5 0
-7 -4 -4 -10z"/>
<path d="M10640 6560 c0 -5 7 -10 15 -10 8 0 15 5 15 10 0 6 -7 10 -15 10 -8
0 -15 -4 -15 -10z"/>
<path d="M6068 6539 c-10 -5 -18 -15 -18 -21 0 -7 4 -7 13 1 8 6 17 8 20 4 4
-3 7 1 7 10 0 20 0 20 -22 6z"/>
<path d="M5451 6527 c-17 -21 -21 -77 -5 -77 7 0 16 5 19 10 3 6 1 10 -4 10
-15 0 -14 33 1 48 6 6 9 14 6 17 -3 3 -10 -1 -17 -8z"/>
<path d="M5984 6518 c-5 -7 -3 -8 6 -3 8 5 21 -3 37 -21 l25 -29 -22 33 c-23
34 -34 39 -46 20z"/>
<path d="M14071 6490 c26 -49 42 -61 26 -20 -6 16 -15 30 -19 30 -4 0 -8 7 -8
15 0 8 -4 15 -10 15 -5 0 0 -18 11 -40z"/>
<path d="M5969 6476 c6 -7 8 -16 4 -19 -3 -4 -2 -7 4 -7 21 0 22 28 2 33 -15
4 -18 2 -10 -7z"/>
<path d="M6521 6481 c-10 -6 -10 -10 -1 -16 13 -8 24 -1 19 14 -3 6 -10 7 -18
2z"/>
<path d="M5986 6431 c-10 -11 -13 -21 -7 -25 5 -4 12 -2 16 4 3 5 3 10 -2 10
-4 0 -1 4 7 10 8 5 12 11 9 15 -3 3 -14 -3 -23 -14z"/>
<path d="M6072 6425 c-9 -19 -8 -23 5 -21 22 3 36 33 19 39 -8 3 -18 -4 -24
-18z"/>
<path d="M10464 6439 c-2 -4 1 -11 6 -14 6 -4 15 -18 20 -31 9 -24 50 -35 50
-13 0 5 -4 8 -9 4 -5 -3 -13 0 -17 6 -4 8 -3 9 4 5 7 -4 12 -2 12 5 0 7 7 4
16 -7 8 -11 14 -13 12 -5 -2 8 -15 21 -28 30 -14 10 -21 11 -16 4 4 -9 1 -13
-9 -13 -11 0 -15 6 -11 18 4 13 1 19 -9 19 -9 0 -18 -4 -21 -8z"/>
<path d="M13755 6429 c-16 -10 -39 -16 -51 -13 -19 5 -182 -55 -278 -102 -16
-8 -37 -14 -47 -14 -10 0 -23 -8 -28 -18 -6 -11 -32 -27 -58 -37 -65 -24 -74
-34 -21 -25 54 10 100 30 111 47 4 7 15 13 22 13 8 0 15 4 15 8 0 5 18 14 39
21 21 6 63 22 92 35 30 13 57 23 60 22 3 0 13 5 22 13 10 7 17 10 17 6 0 -4
10 0 23 8 14 9 29 12 37 7 7 -5 25 -4 39 2 14 5 35 12 45 14 32 6 40 21 14 26
-13 2 -37 -4 -53 -13z"/>
<path d="M14113 6408 c1 -15 6 -23 11 -18 4 4 4 16 -2 26 -9 16 -10 14 -9 -8z"/>
<path d="M5030 6405 c5 -7 6 -16 2 -20 -4 -5 -1 -5 6 -1 17 10 15 33 -3 33
-10 0 -12 -4 -5 -12z"/>
<path d="M10300 6396 c0 -9 5 -16 10 -16 6 0 10 4 10 9 0 6 -4 13 -10 16 -5 3
-10 -1 -10 -9z"/>
<path d="M6364 6392 c3 -6 -3 -14 -15 -17 -15 -5 -18 -10 -9 -15 6 -4 11 -10
11 -14 -3 -22 1 -26 14 -12 18 17 20 52 3 62 -6 4 -8 3 -4 -4z"/>
<path d="M5596 6379 c3 -6 0 -15 -7 -20 -11 -7 -11 -9 3 -9 9 0 22 -8 27 -17
6 -10 11 -13 11 -6 0 6 -4 15 -10 18 -5 3 -10 15 -10 26 0 10 -5 19 -11 19 -5
0 -7 -5 -3 -11z"/>
<path d="M12777 6359 c-32 -16 -61 -39 -66 -50 -12 -34 -1 -76 26 -101 l26
-23 -13 25 c-12 23 -12 24 4 11 14 -12 17 -12 14 -1 -2 8 -11 21 -21 30 -18
15 -18 17 0 50 19 33 65 56 86 43 6 -3 7 -1 3 5 -4 7 7 13 29 18 44 8 45 19 3
22 -20 1 -57 -11 -91 -29z"/>
<path d="M13090 6370 c-13 -11 -27 -20 -32 -20 -4 0 -8 -5 -8 -11 0 -5 5 -7
10 -4 6 3 10 1 10 -4 0 -6 -5 -11 -11 -11 -5 0 -7 -5 -4 -10 4 -6 11 -8 16 -4
6 3 13 -3 16 -15 8 -31 31 -27 25 5 -3 16 -7 21 -12 14 -5 -8 -10 -9 -14 -2
-10 16 3 38 29 52 13 7 22 17 19 22 -8 13 -19 10 -44 -12z"/>
<path d="M13987 6375 c-4 -8 -3 -16 1 -19 4 -3 9 4 9 15 2 23 -3 25 -10 4z"/>
<path d="M5781 6373 c-1 -6 -4 -19 -8 -28 -5 -15 -3 -16 15 -6 12 7 22 16 22
22 0 6 -4 8 -9 5 -5 -4 -12 0 -14 6 -4 9 -6 9 -6 1z"/>
<path d="M8920 6360 c0 -5 5 -10 11 -10 5 0 7 5 4 10 -3 6 -8 10 -11 10 -2 0
-4 -4 -4 -10z"/>
<path d="M8956 6352 c-3 -5 1 -9 9 -9 8 0 15 4 15 9 0 4 -4 8 -9 8 -6 0 -12
-4 -15 -8z"/>
<path d="M13150 6329 c0 -5 5 -7 10 -4 6 3 10 8 10 11 0 2 -4 4 -10 4 -5 0
-10 -5 -10 -11z"/>
<path d="M5673 6305 c4 -8 2 -17 -4 -20 -5 -4 -3 -17 7 -34 15 -25 15 -30 0
-59 -18 -35 -21 -56 -6 -47 6 4 8 11 5 16 -4 5 -1 9 4 9 14 0 14 -27 1 -35
-15 -9 -12 -22 6 -29 14 -5 15 -4 4 9 -8 10 -9 15 -1 15 6 0 11 12 11 28 0 15
7 36 15 46 13 17 13 22 -1 37 -8 9 -16 26 -17 38 -1 11 -5 21 -10 21 -4 0 -5
5 -2 10 3 6 1 10 -5 10 -7 0 -10 -7 -7 -15z"/>
<path d="M8508 6292 c-13 -5 -15 -11 -8 -22 7 -11 10 -11 10 -2 0 7 5 10 10 7
6 -3 10 1 10 9 0 9 -1 16 -2 15 -2 0 -11 -3 -20 -7z"/>
<path d="M13143 6274 c-3 -9 2 -23 12 -32 16 -16 17 -16 8 3 -6 11 -8 26 -6
33 7 18 -7 15 -14 -4z"/>
<path d="M8467 6256 c-4 -10 -1 -13 8 -9 8 3 12 9 9 14 -7 12 -11 11 -17 -5z"/>
<path d="M12786 6225 c4 -8 8 -15 10 -15 2 0 4 7 4 15 0 8 -4 15 -10 15 -5 0
-7 -7 -4 -15z"/>
<path d="M12930 6229 c0 -5 5 -7 10 -4 6 3 10 8 10 11 0 2 -4 4 -10 4 -5 0
-10 -5 -10 -11z"/>
<path d="M9230 6221 c0 -5 7 -14 15 -21 11 -9 14 -23 10 -44 -5 -23 -4 -27 4
-16 9 12 11 11 11 -7 0 -14 -10 -28 -27 -37 -19 -10 -22 -15 -11 -16 9 0 23 7
31 15 8 8 17 11 21 8 3 -4 5 17 4 45 -1 28 -5 47 -8 41 -4 -5 -12 2 -20 16
-13 24 -30 34 -30 16z"/>
<path d="M12816 6222 c-3 -5 1 -9 9 -9 8 0 12 4 9 9 -3 4 -7 8 -9 8 -2 0 -6
-4 -9 -8z"/>
<path d="M9170 6184 c0 -6 6 -17 14 -23 11 -9 16 -9 22 1 4 7 4 10 -1 6 -4 -4
-14 0 -21 10 -7 9 -14 12 -14 6z"/>
<path d="M13180 6180 c-9 -6 -10 -10 -3 -10 6 0 15 5 18 10 8 12 4 12 -15 0z"/>
<path d="M13003 6147 c-18 -9 -33 -14 -33 -10 0 5 -5 0 -11 -9 -5 -10 -17 -18
-24 -18 -8 0 -15 -4 -15 -8 0 -5 40 -88 90 -186 49 -98 95 -196 102 -217 8
-27 14 -36 20 -27 5 9 8 10 8 1 0 -7 -8 -16 -17 -22 -15 -8 -16 -12 -4 -23 12
-11 13 -10 7 2 -4 8 1 4 12 -9 l19 -24 -2 40 c-3 47 -35 144 -46 138 -4 -3 -6
1 -5 8 1 11 -83 182 -133 270 -22 39 -21 57 3 57 7 0 21 9 31 20 10 11 22 17
26 14 5 -3 9 0 9 6 0 7 6 8 18 1 11 -6 25 -5 41 3 21 12 20 13 -20 12 -24 -1
-58 -9 -76 -19z"/>
<path d="M8455 6099 c-33 -21 -68 -37 -77 -35 -10 2 -18 0 -18 -5 0 -4 -18
-14 -39 -20 -49 -15 -60 -36 -25 -49 35 -14 41 -12 18 5 -18 13 -17 14 9 9 19
-3 26 -1 22 6 -4 6 10 17 32 26 21 8 54 23 74 33 21 11 48 17 63 14 26 -5 26
-6 10 -24 -10 -11 -14 -22 -11 -26 4 -3 7 -1 7 6 0 8 7 10 19 6 11 -3 22 -1
26 4 9 15 -34 54 -52 47 -13 -6 -14 -4 -3 9 11 13 15 13 23 3 6 -9 7 -8 3 5
-3 10 -6 21 -6 23 0 9 -18 0 -75 -37z"/>
<path d="M5586 6105 c-13 -14 -13 -45 1 -45 3 0 3 7 -1 15 -3 8 -1 15 3 15 5
0 11 7 15 15 7 19 1 19 -18 0z"/>
<path d="M9130 6110 c8 -5 20 -10 25 -10 6 0 3 5 -5 10 -8 5 -19 10 -25 10 -5
0 -3 -5 5 -10z"/>
<path d="M5780 6090 c-8 -5 -10 -10 -5 -10 6 0 3 -5 -5 -10 -10 -6 -11 -10 -2
-10 6 0 14 1 17 3 2 1 11 -7 19 -18 14 -19 15 -19 11 10 -2 17 -4 33 -4 38 -1
10 -13 9 -31 -3z"/>
<path d="M6347 6094 c7 -3 9 -12 6 -21 -4 -11 -2 -14 8 -11 21 7 17 32 -6 35
-11 2 -15 0 -8 -3z"/>
<path d="M5677 6043 c-8 -18 1 -105 13 -116 7 -7 10 -7 7 -1 -3 5 -7 36 -8 67
-2 56 -4 64 -12 50z"/>
<path d="M8557 6033 c-4 -3 -2 -12 4 -19 6 -8 8 -22 5 -31 -4 -10 -4 -14 0
-10 7 7 56 -79 57 -100 0 -7 4 -13 9 -13 5 0 6 -4 3 -10 -8 -13 5 -13 25 0 8
5 10 10 4 10 -6 0 -30 41 -52 90 -43 93 -44 95 -55 83z"/>
<path d="M8545 6000 c3 -5 8 -10 11 -10 2 0 4 5 4 10 0 6 -5 10 -11 10 -5 0
-7 -4 -4 -10z"/>
<path d="M8427 5959 c7 -7 15 -10 18 -7 3 3 -2 9 -12 12 -14 6 -15 5 -6 -5z"/>
<path d="M9193 5953 c3 -12 0 -24 -7 -27 -8 -3 -8 -5 1 -5 19 -1 25 17 13 36
-10 16 -11 16 -7 -4z"/>
<path d="M7622 5939 c-49 -25 -58 -39 -43 -68 15 -27 -1 -35 -22 -10 -32 37
-80 15 -62 -28 5 -10 7 -27 6 -38 -2 -25 40 -107 58 -113 7 -2 2 16 -13 45
-14 28 -23 59 -20 70 3 12 1 24 -5 27 -16 11 -13 36 4 36 9 0 20 -11 25 -25 8
-21 13 -24 29 -16 10 6 21 7 25 4 3 -3 6 3 6 15 0 11 -4 24 -10 27 -20 12 -9
31 28 47 36 16 59 8 45 -16 -3 -5 -2 -7 3 -4 5 3 16 -10 25 -28 11 -22 13 -34
5 -34 -6 0 -3 -5 7 -11 9 -5 17 -20 17 -31 0 -12 -8 -30 -17 -41 -17 -19 -17
-20 2 -9 17 8 20 7 21 -11 1 -12 17 -53 35 -92 18 -38 32 -73 31 -77 -1 -5 2
-8 7 -8 7 0 19 -29 25 -60 1 -3 5 -10 9 -17 4 -6 1 -14 -5 -16 -9 -4 -8 -6 2
-6 16 -2 74 -111 59 -111 -5 0 0 -9 11 -20 12 -12 18 -25 16 -29 -3 -5 7 -21
22 -37 15 -15 20 -24 12 -19 -12 7 -13 6 -3 -7 7 -8 10 -18 6 -21 -3 -4 2 -9
11 -13 9 -3 16 -12 16 -20 0 -16 21 -56 34 -65 5 -4 5 -12 2 -18 -4 -6 -1 -11
8 -11 13 0 33 -52 28 -72 -1 -5 2 -8 7 -8 5 0 7 -8 4 -19 -3 -11 2 -21 11 -24
10 -4 13 -13 9 -23 -4 -12 -3 -15 5 -10 8 5 12 0 12 -13 0 -12 4 -21 10 -21 5
0 7 -6 4 -14 -3 -8 4 -21 16 -29 15 -11 18 -16 8 -20 -11 -4 -11 -6 0 -6 7 -1
10 -5 7 -11 -3 -5 -1 -10 4 -10 6 0 11 -7 11 -15 0 -8 5 -15 10 -15 6 0 10 -9
10 -19 0 -22 15 -35 30 -26 8 5 -11 47 -30 65 -3 3 -24 46 -48 95 -23 50 -47
89 -51 88 -5 -1 -7 6 -4 15 2 10 -5 40 -15 67 -21 52 -95 208 -112 235 -20 33
-98 197 -110 234 -7 21 -32 80 -55 131 -29 63 -40 96 -34 107 10 17 -69 198
-86 198 -5 0 -30 -10 -53 -21z"/>
<path d="M9153 5947 c3 -10 2 -17 -3 -17 -6 0 -10 -5 -10 -11 0 -5 5 -7 10 -4
6 3 10 1 10 -4 0 -6 8 -11 18 -10 10 0 12 3 5 6 -7 2 -13 13 -13 23 0 10 -5
22 -12 26 -8 5 -9 2 -5 -9z"/>
<path d="M8387 5939 c6 -6 9 -17 6 -25 -2 -7 3 -23 12 -36 16 -22 17 -22 11
-1 -4 12 -2 24 4 28 16 10 12 19 -17 33 -17 7 -23 8 -16 1z"/>
<path d="M8457 5913 c5 -12 3 -14 -7 -8 -9 5 -11 4 -6 -3 10 -16 14 -15 26 8
8 16 8 20 -4 20 -10 0 -13 -6 -9 -17z"/>
<path d="M5663 5913 c-7 -3 -13 -14 -13 -24 0 -11 5 -17 10 -14 6 4 10 -5 10
-19 0 -14 3 -26 8 -27 4 0 14 -2 24 -4 15 -3 15 1 1 41 -16 48 -21 54 -40 47z"/>
<path d="M6497 5906 c-4 -9 2 -13 16 -12 11 1 22 7 25 14 5 17 -34 16 -41 -2z"/>
<path d="M5893 5859 c-6 -6 -9 -18 -6 -27 5 -11 3 -13 -8 -7 -8 4 -11 5 -7 0
4 -4 0 -14 -10 -21 -16 -12 -16 -13 0 -14 11 0 16 -6 13 -20 -2 -11 0 -20 6
-20 5 0 7 12 5 28 -5 30 17 68 33 57 6 -3 11 -13 11 -21 0 -8 -4 -12 -10 -9
-5 3 -10 1 -10 -4 0 -6 -1 -14 -2 -18 -2 -3 5 -7 14 -9 10 -1 17 1 17 4 -3 23
3 42 12 40 16 -4 21 14 9 32 -8 12 -12 12 -18 2 -9 -14 -45 -5 -36 9 7 12 0
11 -13 -2z"/>
<path d="M8497 5863 c-10 -9 -9 -23 2 -23 5 0 11 7 15 15 5 15 -5 20 -17 8z"/>
<path d="M5089 5847 c6 -8 7 -18 3 -23 -4 -5 -3 -5 2 -1 16 13 15 37 -1 37
-12 0 -13 -3 -4 -13z"/>
<path d="M8596 5851 c-4 -7 -5 -15 -2 -18 9 -9 19 4 14 18 -4 11 -6 11 -12 0z"/>
<path d="M8640 5829 c-12 -9 -12 -10 4 -5 15 5 17 2 13 -14 -3 -11 -1 -18 4
-14 8 5 14 -17 10 -39 -1 -5 3 -6 9 -2 5 3 10 4 10 0 0 -11 -111 -56 -122 -49
-7 4 -8 3 -4 -4 4 -7 1 -12 -7 -12 -8 0 -17 7 -21 15 -3 8 -13 15 -23 15 -14
0 -15 2 -4 9 11 7 9 14 -14 35 -15 14 -33 26 -39 26 -6 0 -3 -5 7 -11 9 -6 15
-14 12 -20 -4 -5 -1 -9 4 -9 6 0 11 -7 11 -15 0 -8 9 -19 21 -25 28 -16 8 -38
-31 -34 -22 3 -30 -1 -35 -17 -13 -39 25 -45 76 -13 46 29 102 53 156 68 l43
11 -25 50 c-32 62 -37 67 -55 54z"/>
<path d="M9710 5827 c0 -7 5 -18 12 -25 7 -7 8 -12 3 -12 -4 0 0 -9 9 -19 10
-11 15 -24 12 -29 -7 -12 -86 -54 -86 -46 0 4 -7 0 -17 -7 -9 -8 -39 -26 -67
-41 -28 -14 -50 -31 -48 -37 1 -6 3 -16 5 -23 1 -6 -25 -23 -58 -37 -33 -14
-61 -29 -63 -33 -2 -5 -10 -8 -18 -8 -8 0 -14 -4 -14 -10 0 -5 -7 -10 -15 -10
-13 0 -17 6 -14 26 0 4 -3 10 -8 13 -17 13 -34 53 -28 69 3 13 -1 18 -16 18
-17 0 -19 -5 -14 -26 4 -13 12 -28 18 -32 7 -4 8 -8 3 -8 -4 0 -1 -10 7 -23 8
-13 17 -33 19 -46 l3 -22 40 21 c21 11 42 20 46 20 4 0 38 14 77 32 64 29 69
33 62 54 -8 20 -3 26 39 52 26 16 58 33 72 37 41 13 89 42 82 49 -4 4 0 4 10
0 23 -8 22 2 -10 63 -25 51 -43 67 -43 40z"/>
<path d="M6337 5823 c-4 -3 -7 -11 -7 -17 0 -6 5 -5 12 2 6 6 9 14 7 17 -3 3
-9 2 -12 -2z"/>
<path d="M8502 5810 c15 -24 28 -26 28 -4 0 8 -4 12 -10 9 -5 -3 -10 -1 -10 4
0 6 -5 11 -10 11 -6 0 -5 -8 2 -20z"/>
<path d="M9608 5784 c-38 -18 -68 -36 -68 -38 0 -5 62 16 70 24 3 3 25 15 50
27 25 13 38 22 30 22 -8 -1 -45 -16 -82 -35z"/>
<path d="M10770 5805 c0 -9 5 -15 11 -13 6 2 11 8 11 13 0 5 -5 11 -11 13 -6
2 -11 -4 -11 -13z"/>
<path d="M12116 5798 c4 -13 11 -26 17 -29 6 -4 5 -20 -3 -44 -11 -33 -10 -39
9 -59 12 -13 21 -27 19 -33 -4 -11 44 -117 55 -121 4 -2 5 -7 2 -12 -3 -4 1
-10 9 -13 15 -6 15 4 -3 47 -6 16 -10 31 -7 33 2 3 -5 14 -16 25 -11 11 -18
28 -15 39 3 11 -5 28 -20 43 -15 15 -20 27 -13 31 6 3 8 11 5 16 -8 12 39 33
58 26 12 -4 25 -40 31 -82 3 -26 31 -93 48 -117 17 -25 17 -32 -2 -30 -3 0 -7
-9 -8 -21 -1 -12 -3 -31 -5 -42 -1 -14 5 -21 22 -23 16 -3 22 0 19 10 -3 7
-12 12 -20 12 -10 -1 -14 5 -11 17 3 11 13 19 22 20 11 0 12 2 3 6 -9 3 -10 9
-3 17 8 9 5 24 -8 52 -10 21 -23 55 -29 74 -34 116 -38 125 -60 135 -12 5 -25
18 -28 27 -4 13 -16 18 -40 18 -32 0 -35 -2 -28 -22z m54 -31 c0 -4 -6 -2 -14
5 -8 7 -12 17 -9 22 5 8 23 -12 23 -27z"/>
<path d="M6284 5799 c-3 -5 0 -18 6 -29 9 -16 8 -25 0 -35 -7 -8 -10 -20 -8
-26 2 -7 12 5 22 26 l18 38 19 -24 c13 -16 19 -19 19 -9 0 17 -36 43 -50 35
-5 -3 -11 -1 -15 5 -3 5 1 10 9 10 9 0 16 4 16 8 0 11 -29 11 -36 1z"/>
<path d="M7250 5771 c0 -15 6 -21 21 -21 25 0 22 33 -4 38 -12 2 -17 -3 -17
-17z"/>
<path d="M5946 5763 c-6 -14 -5 -15 5 -6 7 7 10 15 7 18 -3 3 -9 -2 -12 -12z"/>
<path d="M12922 5745 c-17 -36 -15 -39 10 -15 15 14 19 23 12 30 -7 7 -14 2
-22 -15z"/>
<path d="M5655 5731 c-3 -5 0 -13 6 -16 6 -4 8 -18 4 -32 -5 -20 -3 -22 8 -12
18 18 17 59 -2 51 -9 -3 -12 -1 -7 6 4 7 5 12 2 12 -3 0 -7 -4 -11 -9z"/>
<path d="M9510 5730 c0 -5 5 -10 10 -10 6 0 10 5 10 10 0 6 -4 10 -10 10 -5 0
-10 -4 -10 -10z"/>
<path d="M9473 5699 c-10 -25 -9 -28 1 -20 7 6 16 8 19 4 4 -3 7 6 7 20 0 36
-13 34 -27 -4z"/>
<path d="M12818 5709 c-28 -16 -21 -30 7 -17 14 6 25 15 25 20 0 11 -11 10
-32 -3z"/>
<path d="M7604 5678 c9 -14 13 -28 9 -31 -3 -4 1 -7 10 -7 10 0 16 -3 16 -7
-4 -25 2 -36 12 -26 15 15 -21 87 -45 91 -16 4 -16 2 -2 -20z"/>
<path d="M10826 5662 c-3 -5 -23 -12 -45 -16 -22 -3 -46 -12 -53 -19 -7 -6
-20 -14 -28 -16 -59 -16 -100 -35 -97 -45 3 -7 -1 -20 -8 -30 -8 -10 -11 -25
-9 -34 4 -11 1 -10 -7 3 -18 30 -19 31 -28 16 -6 -8 -2 -21 8 -33 9 -10 16
-24 16 -31 0 -6 9 -13 20 -14 l20 -3 -20 9 c-19 9 -18 10 5 10 18 1 21 4 12
10 -17 10 -12 43 7 49 9 3 11 0 6 -9 -6 -11 -5 -11 4 -3 10 9 10 17 2 32 -9
17 -7 21 12 26 12 3 25 4 28 3 3 -1 13 4 21 11 8 6 42 21 74 32 46 15 62 16
71 7 6 -7 26 -50 43 -97 18 -47 39 -99 47 -117 8 -17 16 -38 17 -46 1 -8 7
-21 13 -28 26 -34 20 -43 -46 -66 -36 -13 -83 -32 -106 -42 -22 -10 -48 -21
-58 -25 -28 -9 -9 -29 21 -21 15 4 29 10 32 15 7 12 157 70 180 70 29 0 32 15
12 52 -10 18 -22 46 -26 62 -4 15 -16 47 -26 70 -11 22 -35 81 -54 131 -33 86
-47 107 -60 87z"/>
<path d="M9400 5650 c0 -5 7 -7 15 -4 8 4 15 8 15 10 0 2 -7 4 -15 4 -8 0 -15
-4 -15 -10z"/>
<path d="M9380 5641 c0 -7 -3 -10 -8 -7 -4 2 -16 -2 -27 -10 -16 -12 -17 -14
-2 -14 9 0 17 5 17 11 0 5 4 8 9 4 11 -6 26 13 17 22 -3 4 -6 1 -6 -6z"/>
<path d="M7570 5620 c0 -5 7 -10 16 -10 8 0 12 5 9 10 -3 6 -10 10 -16 10 -5
0 -9 -4 -9 -10z"/>
<path d="M5666 5591 c-4 -6 -12 -9 -17 -6 -5 4 -9 1 -9 -4 0 -6 7 -11 15 -11
11 0 14 -10 13 -40 -1 -22 2 -43 5 -47 4 -3 7 1 7 11 0 11 4 15 13 10 9 -6 9
-5 0 7 -7 8 -10 25 -7 36 7 26 -10 61 -20 44z"/>
<path d="M7659 5599 c0 -2 -2 -12 -4 -22 -2 -9 0 -15 5 -12 8 5 24 -39 23 -67
0 -9 5 -14 12 -11 7 2 12 -2 12 -9 -2 -18 84 -198 95 -198 4 0 8 -7 8 -15 0
-18 32 -88 45 -97 6 -4 7 -8 3 -8 -4 0 9 -31 28 -70 20 -38 32 -75 28 -81 -4
-8 -3 -9 4 -5 17 11 15 21 -19 94 -17 37 -56 121 -86 187 -30 66 -73 158 -96
205 -22 47 -41 88 -41 92 -1 8 -16 23 -17 17z"/>
<path d="M13171 5563 c6 -15 16 -34 22 -42 10 -12 9 -13 -2 -6 -9 5 -6 -4 7
-22 11 -16 23 -43 26 -58 9 -47 39 -125 49 -125 5 0 6 7 3 16 -6 15 -4 15 10
3 15 -12 15 -10 -1 21 -11 19 -20 44 -22 55 -2 10 -7 22 -11 25 -4 3 -9 14
-10 25 -2 11 -8 22 -13 25 -5 3 -11 17 -13 30 -2 14 -5 26 -7 28 -1 1 -2 8 -3
15 -1 6 -7 11 -14 10 -6 -2 -9 4 -6 12 4 9 0 15 -10 15 -13 0 -14 -5 -5 -27z
m94 -193 c3 -5 1 -10 -4 -10 -6 0 -11 5 -11 10 0 6 2 10 4 10 3 0 8 -4 11 -10z"/>
<path d="M7055 5570 c-10 -16 3 -29 24 -23 12 3 17 11 14 19 -6 16 -29 19 -38
4z"/>
<path d="M11850 5570 c0 -5 7 -7 15 -4 8 4 15 8 15 10 0 2 -7 4 -15 4 -8 0
-15 -4 -15 -10z"/>
<path d="M6162 5554 c-11 -12 -10 -14 3 -14 8 0 15 -9 15 -20 0 -17 4 -19 25
-14 24 6 26 4 25 -27 0 -42 7 -177 13 -242 4 -31 1 -50 -7 -55 -11 -6 -30 -42
-22 -42 1 0 15 11 30 24 l28 23 -9 154 c-4 85 -7 164 -7 177 1 23 -21 31 -29
10 -3 -7 -6 -1 -6 15 -1 17 -6 27 -17 27 -9 0 -12 -5 -8 -12 6 -10 5 -10 -7
-2 -11 9 -17 9 -27 -2z m43 -23 c3 -5 2 -12 -3 -15 -5 -3 -9 1 -9 9 0 17 3 19
12 6z"/>
<path d="M12367 5556 c-4 -9 2 -13 19 -13 20 0 22 2 13 13 -6 8 -15 14 -19 14
-4 0 -10 -6 -13 -14z"/>
<path d="M5937 5543 c3 -8 12 -12 19 -9 7 3 16 1 19 -4 3 -5 17 -3 31 5 28 14
68 9 57 -8 -3 -6 -1 -7 5 -3 7 4 12 13 12 21 0 10 -19 13 -74 13 -60 -1 -73
-4 -69 -15z"/>
<path d="M6127 5553 c-4 -3 -7 -11 -7 -17 0 -6 5 -5 12 2 6 6 9 14 7 17 -3 3
-9 2 -12 -2z"/>
<path d="M12376 5532 c-3 -5 1 -9 9 -9 8 0 12 4 9 9 -3 4 -7 8 -9 8 -2 0 -6
-4 -9 -8z"/>
<path d="M7315 5510 c-8 -13 -1 -24 14 -19 6 3 7 10 2 18 -6 10 -10 10 -16 1z"/>
<path d="M12477 5483 c-4 -3 -7 -13 -7 -21 0 -11 3 -12 13 -3 8 6 17 8 21 4 4
-4 4 0 0 10 -6 18 -16 22 -27 10z"/>
<path d="M8988 5419 c-43 -21 -43 -24 -22 -59 l15 -25 -5 33 c-5 29 0 36 25
34 3 0 10 8 17 19 7 10 11 19 10 18 -2 -1 -20 -10 -40 -20z"/>
<path d="M9041 5414 c0 -11 3 -14 6 -6 3 7 2 16 -1 19 -3 4 -6 -2 -5 -13z"/>
<path d="M10590 5425 c0 -2 19 -50 41 -106 23 -55 42 -112 42 -125 0 -24 7
-30 20 -17 4 3 3 11 -2 17 -15 19 -22 64 -11 71 8 5 8 11 1 19 -6 7 -8 16 -4
20 4 4 -1 4 -11 0 -13 -5 -17 -4 -13 3 4 6 1 17 -6 25 -8 7 -13 21 -11 31 1
10 -2 14 -9 10 -6 -4 -8 0 -4 10 3 9 2 19 -4 22 -5 4 -7 11 -4 16 4 5 -1 9 -9
9 -9 0 -16 -2 -16 -5z m85 -144 c3 -5 0 -13 -6 -17 -7 -4 -9 -3 -5 4 3 5 0 13
-6 15 -9 4 -10 6 -1 6 6 1 14 -3 18 -8z"/>
<path d="M9058 5384 c-4 -6 1 -19 12 -29 12 -10 20 -13 20 -7 0 7 -4 12 -9 12
-5 0 -11 8 -13 18 -2 11 -6 13 -10 6z"/>
<path d="M12384 5361 c2 -9 8 -16 14 -15 35 3 36 4 24 16 -18 18 -40 18 -38
-1z"/>
<path d="M8825 5349 c-10 -14 3 -59 16 -59 8 0 7 6 -2 16 -10 12 -10 20 -1 35
7 10 8 19 3 19 -6 0 -13 -5 -16 -11z"/>
<path d="M11885 5350 c4 -6 11 -8 16 -5 14 9 11 15 -7 15 -8 0 -12 -5 -9 -10z"/>
<path d="M10092 5284 c10 -10 20 -15 24 -12 3 4 -5 12 -18 18 -22 12 -22 12
-6 -6z"/>
<path d="M13276 5273 c5 -27 19 -43 39 -43 6 1 1 7 -9 15 -11 8 -15 15 -9 15
6 0 9 9 6 20 -8 32 -33 25 -27 -7z"/>
<path d="M10014 5268 c-3 -4 4 -8 15 -8 12 0 21 4 21 8 0 5 -7 9 -15 9 -9 0
-18 -4 -21 -9z"/>
<path d="M9085 5248 c-16 -11 -21 -17 -10 -13 11 4 25 8 31 8 6 0 11 6 11 14
0 7 -1 13 -1 12 -1 0 -14 -10 -31 -21z"/>
<path d="M10695 5261 c-3 -2 -2 -8 1 -12 9 -14 41 -10 48 6 4 11 -1 14 -20 13
-14 -2 -27 -4 -29 -7z"/>
<path d="M10066 5248 c5 -8 2 -9 -10 -5 -10 4 -15 3 -11 -3 3 -6 0 -10 -8 -10
-7 0 -14 -7 -14 -15 0 -13 3 -13 18 1 18 16 39 12 39 -8 0 -5 -8 -7 -17 -4
-10 4 -14 4 -10 0 12 -12 -26 -34 -40 -22 -10 8 -13 6 -13 -5 0 -8 6 -17 13
-19 18 -7 38 2 31 14 -4 6 -1 8 7 6 8 -3 13 -11 11 -17 -1 -7 2 -10 8 -6 8 5
7 11 -1 21 -11 14 -3 19 27 15 6 -1 11 6 11 14 0 8 -6 15 -13 15 -7 0 -16 5
-20 12 -5 8 -2 9 11 4 15 -5 16 -4 5 9 -15 18 -35 20 -24 3z"/>
<path d="M12519 5207 c-17 -23 -34 -49 -37 -57 -3 -8 -16 -23 -29 -33 -13 -10
-23 -24 -23 -32 0 -7 -3 -15 -7 -17 -5 -2 -19 -15 -31 -30 l-24 -26 39 -36
c21 -19 43 -35 48 -35 6 0 -5 13 -24 29 l-33 28 78 104 c42 56 79 105 81 108
3 3 10 -2 16 -11 7 -9 17 -17 22 -18 26 -4 45 -13 45 -22 0 -5 8 -9 17 -9 9 0
14 -3 10 -6 -9 -9 122 -104 142 -104 17 1 15 3 -46 46 -14 11 -40 31 -57 45
-17 14 -59 46 -93 72 l-63 47 -31 -43z"/>
<path d="M5580 5230 c0 -5 5 -10 11 -10 5 0 7 5 4 10 -3 6 -8 10 -11 10 -2 0
-4 -4 -4 -10z"/>
<path d="M8887 5233 c-4 -3 -7 -13 -7 -21 0 -18 13 -7 16 13 2 17 1 18 -9 8z"/>
<path d="M10120 5219 c0 -5 5 -7 10 -4 6 3 10 8 10 11 0 2 -4 4 -10 4 -5 0
-10 -5 -10 -11z"/>
<path d="M13320 5220 c-11 -7 -11 -10 -2 -10 7 0 11 -4 8 -9 -3 -5 1 -14 9
-21 8 -7 15 -21 15 -31 0 -11 5 -19 10 -19 15 0 12 15 -9 54 -11 19 -17 37
-14 40 9 9 0 7 -17 -4z"/>
<path d="M11925 5210 c-4 -6 3 -10 14 -10 25 0 27 6 6 13 -8 4 -17 2 -20 -3z"/>
<path d="M9975 5200 c3 -5 8 -10 11 -10 2 0 4 5 4 10 0 6 -5 10 -11 10 -5 0
-7 -4 -4 -10z"/>
<path d="M10143 5203 c-7 -2 -13 -11 -13 -19 0 -8 -7 -14 -15 -14 -8 0 -14 -6
-12 -12 1 -7 -8 -14 -20 -16 -27 -4 -28 -11 -8 -38 13 -17 14 -17 15 -2 0 10
12 31 28 47 56 61 59 68 25 54z"/>
<path d="M13086 5185 c-3 -8 -1 -17 3 -20 5 -3 11 2 15 10 3 8 1 17 -3 20 -5
3 -11 -2 -15 -10z"/>
<path d="M13364 5090 c0 -18 6 -30 15 -30 9 0 11 -7 8 -21 -3 -11 0 -22 7 -25
13 -5 15 -12 19 -59 2 -27 5 -29 25 -16 11 7 11 10 0 22 -7 8 -14 23 -16 34
-3 22 -6 32 -15 55 -4 8 -11 27 -16 43 -14 36 -29 35 -27 -3z"/>
<path d="M5239 5048 c7 -9 9 -23 5 -30 -6 -10 -4 -11 7 0 11 10 10 15 -6 30
-17 15 -18 15 -6 0z"/>
<path d="M10150 5051 c8 -6 18 -7 22 -5 14 9 21 -27 8 -39 -10 -10 -12 -8 -7
6 6 15 4 16 -13 7 -11 -6 -27 -10 -34 -8 -8 2 -15 -1 -15 -7 0 -5 10 -9 22 -7
36 4 51 -6 37 -23 -7 -9 -10 -18 -7 -22 4 -3 2 -12 -4 -20 -13 -15 -59 -18
-59 -2 0 5 -4 7 -10 4 -5 -3 -7 0 -4 8 3 8 1 18 -5 22 -19 11 -12 -34 8 -54
39 -39 85 -12 94 54 2 17 7 38 12 48 9 22 -11 47 -39 47 -17 0 -18 -2 -6 -9z"/>
<path d="M7357 5039 c7 -7 15 -10 18 -7 3 3 -2 9 -12 12 -14 6 -15 5 -6 -5z"/>
<path d="M10058 5023 c7 -3 16 -2 19 1 4 3 -2 6 -13 5 -11 0 -14 -3 -6 -6z"/>
<path d="M6134 5003 c-18 -13 -28 -53 -13 -53 8 0 24 -40 21 -52 -2 -9 22 -11
30 -2 8 7 -21 64 -33 64 -20 0 -7 28 16 34 14 4 25 10 25 15 0 12 -25 9 -46
-6z"/>
<path d="M12015 5000 c-3 -5 3 -10 15 -10 12 0 18 5 15 10 -3 6 -10 10 -15 10
-5 0 -12 -4 -15 -10z"/>
<path d="M6072 4991 c4 -13 18 -16 19 -4 0 4 -5 9 -11 12 -7 2 -11 -2 -8 -8z"/>
<path d="M7936 4983 c-6 -14 -5 -15 5 -6 7 7 10 15 7 18 -3 3 -9 -2 -12 -12z"/>
<path d="M10201 4984 c0 -11 3 -14 6 -6 3 7 2 16 -1 19 -3 4 -6 -2 -5 -13z"/>
<path d="M6857 4948 c-63 -31 -82 -37 -93 -27 -11 9 -21 9 -40 0 -29 -13 -23
-35 7 -26 11 4 25 2 32 -3 8 -7 38 3 96 29 66 32 86 37 97 28 8 -7 13 -18 10
-26 -3 -8 -2 -12 3 -9 5 3 12 -4 16 -17 4 -12 8 -24 10 -27 1 -3 9 -22 18 -42
9 -20 21 -40 27 -43 6 -4 8 -10 5 -15 -6 -9 21 -59 37 -70 4 -3 9 -15 11 -26
3 -24 59 -114 70 -114 12 0 8 12 -16 44 -25 34 -57 98 -57 115 0 6 -4 11 -10
11 -5 0 -9 3 -8 8 2 10 -46 110 -82 173 -17 27 -30 56 -30 64 0 22 -16 17
-103 -27z"/>
<path d="M10053 4982 c-7 -4 -9 -13 -5 -19 6 -9 11 -6 20 7 13 21 6 26 -15 12z"/>
<path d="M10350 4986 c0 -2 7 -6 15 -10 8 -3 15 -1 15 4 0 6 -7 10 -15 10 -8
0 -15 -2 -15 -4z"/>
<path d="M5727 4956 c-4 -9 -4 -23 0 -33 5 -14 8 -12 15 7 5 13 5 27 0 32 -6
6 -12 3 -15 -6z"/>
<path d="M5965 4960 c-3 -5 -1 -10 4 -10 6 0 11 5 11 10 0 6 -2 10 -4 10 -3 0
-8 -4 -11 -10z"/>
<path d="M5840 4950 c-13 -8 -12 -10 3 -10 9 0 17 -5 17 -12 0 -8 6 -6 17 5 9
9 13 20 9 24 -4 4 -11 1 -15 -6 -6 -8 -10 -9 -12 -2 -3 7 -9 7 -19 1z"/>
<path d="M10206 4943 c-6 -14 -5 -15 5 -6 7 7 10 15 7 18 -3 3 -9 -2 -12 -12z"/>
<path d="M7960 4936 c0 -9 5 -16 10 -16 6 0 10 4 10 9 0 6 -4 13 -10 16 -5 3
-10 -1 -10 -9z"/>
<path d="M5760 4925 c-11 -13 -10 -14 4 -9 9 3 16 10 16 15 0 13 -6 11 -20 -6z"/>
<path d="M8993 4911 c-18 -10 -29 -22 -25 -26 4 -5 1 -5 -5 -1 -7 4 -23 1 -35
-6 -13 -7 -26 -11 -30 -10 -5 1 -8 -3 -8 -9 0 -5 -4 -8 -8 -5 -5 3 -25 -6 -44
-19 -20 -13 -38 -21 -42 -18 -3 4 -6 1 -6 -6 0 -7 -4 -9 -10 -6 -5 3 -10 1
-10 -5 0 -6 -5 -8 -12 -4 -7 5 -8 3 -4 -5 5 -8 3 -12 -5 -10 -31 4 -49 -2 -58
-20 -8 -15 -7 -20 6 -26 10 -3 14 -3 10 1 -9 9 113 69 134 66 9 -2 19 5 23 14
4 9 12 14 22 10 10 -4 13 -2 8 6 -5 7 0 9 14 6 14 -4 20 -2 15 5 -4 7 0 8 11
4 13 -5 17 -3 13 6 -3 8 0 14 6 15 12 0 31 5 75 18 17 5 21 3 17 -8 -4 -9 10
-47 29 -87 19 -39 32 -71 30 -71 -2 0 7 -17 21 -38 14 -22 28 -50 30 -63 3
-13 11 -37 19 -54 36 -74 66 -143 66 -148 0 -4 -7 -7 -15 -7 -15 0 -259 -113
-312 -145 -36 -21 -50 -45 -28 -45 8 0 15 5 15 10 0 11 321 170 343 170 36 0
34 23 -14 118 -27 53 -49 103 -49 111 0 19 -42 101 -52 101 -4 0 -8 8 -8 18 0
10 -7 27 -15 38 -8 12 -12 24 -10 26 3 3 -6 17 -19 31 -13 14 -19 28 -13 30
18 6 -1 37 -23 37 -12 0 -18 5 -15 10 8 13 6 12 -32 -9z"/>
<path d="M13427 4923 c-3 -5 1 -14 9 -21 12 -11 14 -9 14 8 0 20 -14 27 -23
13z"/>
<path d="M12500 4902 c0 -9 15 -18 33 -20 4 -1 17 -11 27 -24 11 -13 19 -18
20 -12 0 6 -11 21 -25 34 -14 13 -25 20 -25 16 0 -5 -7 -3 -15 4 -9 7 -15 8
-15 2z"/>
<path d="M7600 4880 c13 -11 24 -20 26 -20 1 0 0 9 -3 20 -3 12 -14 20 -26 20
-19 0 -19 -1 3 -20z"/>
<path d="M7991 4882 c-1 -14 66 -162 73 -162 3 0 4 9 3 20 -1 11 -4 20 -8 20
-4 0 -5 8 -2 19 3 11 -2 21 -12 24 -8 4 -24 26 -35 49 -10 24 -19 37 -19 30z"/>
<path d="M10310 4877 c-31 -15 -71 -53 -62 -61 12 -13 34 -6 28 9 -3 9 0 15 8
15 7 0 19 7 26 15 18 22 24 19 42 -19 l16 -33 -35 -17 c-33 -16 -36 -16 -49 1
-11 14 -13 15 -14 3 0 -12 -3 -11 -11 3 -11 18 -29 23 -29 8 0 -5 17 -19 37
-31 l37 -22 44 21 c34 17 42 25 37 39 -4 9 -10 25 -12 35 -3 9 -9 17 -14 17
-5 0 -8 5 -6 11 3 17 -14 19 -43 6z"/>
<path d="M13464 4874 c-8 -3 -6 -15 4 -39 10 -21 19 -30 23 -23 4 6 1 17 -6
25 -8 7 -12 20 -9 28 6 16 6 16 -12 9z"/>
<path d="M12590 4843 c0 -3 9 -16 19 -29 16 -20 20 -21 25 -8 3 9 2 12 -5 9
-6 -4 -9 0 -7 10 2 11 -4 19 -14 20 -10 2 -18 1 -18 -2z"/>
<path d="M6080 4830 c0 -5 5 -10 11 -10 5 0 7 5 4 10 -3 6 -8 10 -11 10 -2 0
-4 -4 -4 -10z"/>
<path d="M10445 4830 c3 -5 11 -10 16 -10 6 0 7 5 4 10 -3 6 -11 10 -16 10 -6
0 -7 -4 -4 -10z"/>
<path d="M7630 4780 c0 -5 5 -10 11 -10 5 0 7 5 4 10 -3 6 -8 10 -11 10 -2 0
-4 -4 -4 -10z"/>
<path d="M13482 4783 c-10 -4 -9 -9 5 -20 11 -9 12 -12 3 -8 -13 6 -13 5 0 -7
9 -7 16 -24 15 -38 0 -15 5 -24 13 -22 6 1 12 -2 12 -7 0 -5 -6 -12 -12 -14
-10 -4 -9 -6 1 -6 10 -1 11 -4 3 -14 -8 -9 -8 -17 0 -27 8 -13 9 -12 5 2 -3 9
1 19 9 22 12 4 14 1 9 -14 -4 -11 -2 -20 3 -20 12 0 12 32 0 47 -6 7 -8 20 -4
28 3 9 2 13 -4 10 -10 -6 -14 7 -11 33 1 6 -3 12 -10 12 -6 0 -9 7 -5 15 3 8
1 15 -5 15 -6 0 -7 5 -4 10 7 11 -2 12 -23 3z"/>
<path d="M8660 4738 c0 -12 3 -18 7 -14 11 10 12 36 2 36 -5 0 -9 -10 -9 -22z"/>
<path d="M9580 4715 c0 -9 6 -12 15 -9 8 4 15 10 15 15 0 5 -7 9 -15 9 -8 0
-15 -7 -15 -15z"/>
<path d="M8214 4709 c-2 -4 16 -49 41 -100 25 -50 45 -96 45 -101 0 -5 14 -38
30 -73 17 -35 30 -69 30 -75 0 -5 6 -10 13 -10 8 0 7 -4 -3 -10 -13 -8 -12
-10 4 -10 11 0 16 5 13 13 -3 6 -24 54 -46 104 -22 52 -38 101 -35 110 5 15 4
16 -6 3 -9 -12 -11 -10 -7 12 2 15 1 25 -3 23 -5 -3 -11 2 -14 11 -4 10 -2 13
7 9 6 -4 4 0 -6 8 -14 11 -15 16 -5 20 9 4 8 6 -3 6 -9 1 -19 8 -22 15 -4 11
-1 13 11 10 16 -5 16 -5 0 6 -9 6 -15 16 -12 24 5 13 -23 18 -32 5z"/>
<path d="M7660 4690 c0 -5 5 -10 11 -10 5 0 7 5 4 10 -3 6 -8 10 -11 10 -2 0
-4 -4 -4 -10z"/>
<path d="M8100 4631 c0 -6 4 -13 10 -16 6 -3 7 1 4 9 -7 18 -14 21 -14 7z"/>
<path d="M13241 4622 c-7 -2 -22 -12 -32 -21 -59 -53 -103 -86 -111 -83 -5 1
-11 -5 -14 -13 -3 -8 -11 -12 -17 -8 -6 4 -8 0 -4 -9 3 -9 0 -15 -6 -14 -13 1
-17 -6 -17 -30 0 -8 5 -12 10 -9 15 9 12 -2 -6 -30 -10 -16 -12 -25 -5 -25 17
0 34 50 21 65 -7 8 -3 15 16 23 15 7 22 17 18 24 -4 6 -3 8 3 5 6 -4 30 8 53
26 88 66 104 75 118 64 7 -5 15 -7 19 -3 3 3 1 6 -6 6 -6 0 -15 8 -19 18 -4
11 -13 17 -21 14z"/>
<path d="M13549 4593 c0 -5 -2 -16 -4 -25 -2 -10 0 -18 5 -18 4 0 7 -8 7 -17
0 -36 3 -42 19 -36 13 5 13 7 2 14 -11 8 -11 11 1 18 12 8 11 12 -4 27 -11 12
-14 19 -6 22 6 2 11 8 11 13 0 11 -30 12 -31 2z"/>
<path d="M8750 4571 c0 -6 4 -13 10 -16 6 -3 7 1 4 9 -7 18 -14 21 -14 7z"/>
<path d="M5764 4558 c-3 -4 3 -11 13 -14 10 -3 29 -10 43 -16 14 -5 36 -12 49
-15 39 -7 41 -11 25 -56 -27 -73 -26 -77 7 -77 20 0 29 5 29 16 0 10 -6 14
-14 11 -23 -9 -26 3 -11 39 8 19 15 38 17 42 2 4 6 6 10 5 4 -2 5 3 3 10 -6
15 -164 66 -171 55z"/>
<path d="M13483 4552 c21 -23 22 -39 2 -22 -14 11 -14 10 -6 -13 9 -23 7 -26
-19 -32 -24 -5 -27 -9 -17 -20 7 -7 13 -9 15 -5 2 4 12 6 23 3 13 -4 19 -1 17
8 -2 7 7 18 20 24 12 5 22 17 21 25 0 10 -2 11 -6 3 -9 -24 -23 -13 -17 12 5
21 3 24 -12 18 -12 -4 -15 -3 -10 5 4 7 1 12 -10 12 -16 0 -16 -1 -1 -18z"/>
<path d="M7159 4525 c10 -11 17 -28 16 -37 -2 -12 2 -15 13 -10 15 5 15 4 3
-11 -7 -10 -9 -17 -3 -17 6 0 18 -20 27 -44 16 -40 45 -70 45 -46 0 6 -5 10
-10 10 -11 0 -31 42 -34 70 -3 27 -30 90 -39 90 -4 0 -6 4 -2 9 3 6 -4 9 -15
8 -19 -1 -19 -2 -1 -22z"/>
<path d="M13360 4540 c0 -5 3 -10 8 -11 4 0 16 -2 27 -4 20 -4 20 -4 1 11 -23
16 -36 18 -36 4z"/>
<path d="M8149 4527 c6 -8 8 -17 4 -20 -3 -4 1 -7 10 -7 15 0 15 3 5 20 -7 11
-17 20 -22 20 -4 0 -3 -6 3 -13z"/>
<path d="M8750 4523 c0 -7 4 -13 9 -13 5 0 11 6 14 13 3 8 -1 14 -9 14 -8 0
-14 -6 -14 -14z"/>
<path d="M13360 4504 c0 -8 5 -12 10 -9 6 3 10 10 10 16 0 5 -4 9 -10 9 -5 0
-10 -7 -10 -16z"/>
<path d="M7590 4500 c0 -5 5 -10 10 -10 6 0 10 5 10 10 0 6 -4 10 -10 10 -5 0
-10 -4 -10 -10z"/>
<path d="M8723 4502 c-7 -4 -9 -13 -5 -19 8 -13 62 -14 62 -1 0 5 -10 8 -22 6
-14 -2 -22 2 -20 10 2 14 1 14 -15 4z"/>
<path d="M13371 4472 c-8 -15 -8 -23 1 -28 6 -4 8 -3 4 4 -3 6 0 12 9 14 10 2
12 8 6 17 -7 11 -11 10 -20 -7z"/>
<path d="M5996 4454 c-9 -8 -16 -12 -16 -7 0 4 -5 0 -11 -10 -6 -9 -14 -15
-20 -12 -5 4 -9 -6 -9 -20 0 -15 4 -24 10 -20 6 4 8 10 5 15 -6 10 23 22 36
14 5 -3 9 2 9 11 0 26 32 13 57 -23 12 -19 19 -41 16 -50 -5 -13 -3 -14 7 -5
15 14 8 45 -20 91 -22 35 -40 40 -64 16z"/>
<path d="M8180 4464 c0 -6 7 -19 16 -30 14 -18 14 -18 3 6 -14 31 -19 36 -19
24z"/>
<path d="M6835 4449 c-11 -16 -14 -49 -5 -49 11 0 22 29 15 41 -4 5 0 6 8 3 8
-3 17 -1 20 3 3 5 -3 9 -13 10 -11 1 -22 -2 -25 -8z"/>
<path d="M8740 4449 c-13 -9 -13 -10 1 -6 9 3 22 0 28 -6 8 -8 11 -7 11 6 0
19 -18 22 -40 6z"/>
<path d="M7650 4420 c0 -5 5 -10 11 -10 5 0 7 5 4 10 -3 6 -8 10 -11 10 -2 0
-4 -4 -4 -10z"/>
<path d="M12420 4404 c-25 -8 -58 -17 -75 -19 -123 -18 -214 -34 -290 -52 -30
-7 -40 -9 -61 -11 -7 -1 -15 -9 -18 -18 -4 -11 -2 -15 8 -11 11 4 13 1 9 -11
-5 -16 -5 -16 8 -1 14 17 87 37 147 41 17 1 32 5 32 8 0 3 8 6 18 7 48 2 105
12 185 33 49 12 100 19 113 16 26 -7 31 3 12 22 -15 15 -31 14 -88 -4z"/>
<path d="M8135 4400 c-3 -5 -1 -10 4 -10 6 0 11 5 11 10 0 6 -2 10 -4 10 -3 0
-8 -4 -11 -10z"/>
<path d="M12829 4387 c-13 -6 -34 -9 -46 -8 -13 1 -23 -1 -23 -6 0 -4 -14 -9
-31 -10 -17 -1 -38 -8 -47 -15 -13 -11 -14 -11 -7 2 7 12 6 13 -7 3 -8 -7 -17
-10 -21 -7 -3 3 -8 -4 -12 -16 -6 -17 -12 -20 -33 -15 -23 6 -24 5 -11 -11 8
-10 9 -15 4 -12 -6 4 -17 3 -25 -3 -12 -7 -9 -9 10 -9 40 0 70 11 70 26 0 12
19 19 43 15 4 0 7 3 7 8 0 5 11 8 25 6 14 -1 25 1 25 4 0 4 14 8 32 9 17 2 38
8 45 14 8 6 26 13 40 14 14 2 30 7 35 12 11 11 -44 11 -73 -1z"/>
<path d="M13000 4391 c0 -4 -12 -6 -27 -3 -24 5 -26 3 -13 -9 21 -21 60 -19
60 3 0 10 -4 18 -10 18 -5 0 -10 -4 -10 -9z"/>
<path d="M8217 4373 c3 -10 10 -23 15 -30 6 -7 7 -17 3 -23 -3 -5 -1 -10 4
-10 6 0 11 3 11 7 0 16 -25 73 -32 73 -4 0 -5 -8 -1 -17z"/>
<path d="M12915 4381 c-3 -5 -1 -12 5 -16 5 -3 10 1 10 9 0 18 -6 21 -15 7z"/>
<path d="M6820 4370 c-9 -6 -10 -10 -3 -10 6 0 15 5 18 10 8 12 4 12 -15 0z"/>
<path d="M12526 4363 c-6 -14 -5 -15 5 -6 7 7 10 15 7 18 -3 3 -9 -2 -12 -12z"/>
<path d="M7242 4336 c10 -7 16 -15 13 -18 -6 -5 85 -188 104 -212 8 -9 11 -16
7 -16 -3 0 8 -23 24 -50 16 -28 33 -62 36 -75 3 -14 11 -22 17 -18 5 3 7 1 4
-5 -8 -12 2 -42 14 -42 5 0 8 8 6 18 -4 27 -31 82 -40 82 -5 0 -5 5 -1 12 5 7
3 8 -6 3 -10 -6 -12 -4 -7 8 4 10 1 17 -5 17 -6 0 -8 3 -5 6 3 4 -2 18 -13 32
-11 13 -17 29 -13 36 3 6 2 8 -2 3 -11 -10 -40 51 -44 91 0 7 -5 10 -11 7 -5
-3 -11 2 -12 12 0 10 -2 23 -2 29 -1 6 -9 22 -19 37 -9 14 -17 30 -17 36 0 5
-7 12 -16 15 -25 10 -30 6 -12 -8z"/>
<path d="M8207 4312 c3 -12 9 -25 14 -28 14 -8 11 10 -6 32 -13 18 -14 18 -8
-4z"/>
<path d="M8380 4290 c-13 -8 -12 -10 3 -10 9 0 17 5 17 10 0 12 -1 12 -20 0z"/>
<path d="M6030 4274 c0 -24 68 -70 82 -56 7 7 2 14 -13 22 -13 7 -34 22 -46
33 -22 20 -23 20 -23 1z"/>
<path d="M7880 4280 c0 -5 5 -10 10 -10 6 0 10 5 10 10 0 6 -4 10 -10 10 -5 0
-10 -4 -10 -10z"/>
<path d="M8396 4274 c-11 -8 -16 -14 -10 -15 5 0 -8 -7 -30 -15 -21 -7 -43
-11 -50 -7 -6 3 -8 3 -4 -2 4 -4 2 -15 -4 -23 -11 -12 -8 -12 22 0 75 32 109
53 102 65 -5 8 -12 8 -26 -3z"/>
<path d="M7890 4252 c0 -6 5 -14 10 -17 6 -4 8 -10 5 -15 -3 -5 -2 -11 3 -14
14 -9 11 32 -4 45 -9 7 -14 8 -14 1z"/>
<path d="M6456 4237 c-18 -13 -16 -14 23 -14 26 0 40 4 38 11 -5 17 -40 18
-61 3z"/>
<path d="M6087 4180 c3 -11 9 -17 15 -14 5 3 4 12 -3 20 -16 19 -18 18 -12 -6z"/>
<path d="M12000 4190 c0 -5 5 -10 10 -10 6 0 10 5 10 10 0 6 -4 10 -10 10 -5
0 -10 -4 -10 -10z"/>
<path d="M11983 4158 c-17 -22 -23 -47 -13 -53 11 -7 60 46 53 57 -7 12 -29 9
-40 -4z"/>
<path d="M6250 4151 c-19 -4 -72 -26 -116 -49 -45 -22 -84 -38 -88 -35 -3 4
-6 -1 -6 -10 0 -20 8 -18 115 33 86 40 145 56 145 39 0 -6 8 -6 21 1 39 21 -6
34 -71 21z"/>
<path d="M10728 4137 c-43 -12 -78 -25 -78 -30 0 -5 8 -6 18 -3 9 3 49 13 87
22 39 9 74 21 80 25 15 14 -23 9 -107 -14z"/>
<path d="M10832 4096 c7 -8 16 -12 21 -9 11 7 -2 23 -19 23 -12 0 -12 -2 -2
-14z"/>
<path d="M11960 4091 c0 -5 -3 -17 -6 -26 -7 -17 15 -18 28 0 11 15 10 22 -7
29 -8 3 -15 1 -15 -3z"/>
<path d="M10737 4059 c7 -7 15 -10 18 -7 3 3 -2 9 -12 12 -14 6 -15 5 -6 -5z"/>
<path d="M10848 4054 c-3 -11 1 -25 9 -32 15 -15 17 -1 4 32 -8 20 -8 20 -13
0z"/>
<path d="M10680 4040 c6 -11 13 -20 16 -20 2 0 0 9 -6 20 -6 11 -13 20 -16 20
-2 0 0 -9 6 -20z"/>
<path d="M8430 4019 c0 -13 4 -18 13 -13 8 5 8 2 -2 -9 -12 -15 -9 -19 23 -32
28 -12 36 -21 36 -41 0 -29 -21 -54 -44 -54 -9 0 -16 -5 -16 -11 0 -7 7 -8 18
-4 9 3 21 7 27 8 25 5 46 36 43 63 -2 21 -12 33 -35 44 -22 10 -33 22 -33 36
0 12 -7 24 -15 28 -10 4 -15 -1 -15 -15z"/>
<path d="M11480 4005 c-25 -8 -61 -17 -80 -19 -19 -3 -59 -12 -88 -20 -53 -14
-81 -14 -105 1 -17 11 -67 12 -67 2 0 -5 -10 -8 -22 -7 -13 0 -48 -7 -78 -16
-30 -10 -68 -20 -85 -22 -87 -14 -99 -17 -105 -25 -3 -3 -18 -11 -35 -18 -28
-10 -27 -11 15 -5 25 3 51 6 58 7 6 0 12 4 12 8 0 4 15 6 33 5 17 -2 38 1 45
7 7 6 23 11 35 12 12 1 33 5 47 10 14 5 34 9 45 10 11 1 28 5 39 10 11 5 39 3
66 -4 42 -11 77 -10 140 5 8 2 58 13 110 25 99 22 153 50 95 48 -17 0 -50 -7
-75 -14z"/>
<path d="M8377 3985 c-10 -7 -14 -16 -9 -19 5 -3 15 1 22 9 17 21 9 27 -13 10z"/>
<path d="M10680 3981 c0 -11 9 -21 23 -24 19 -5 20 -4 6 6 -9 7 -14 18 -12 25
3 6 0 12 -6 12 -6 0 -11 -8 -11 -19z"/>
<path d="M10814 3952 c7 -11 -6 -17 -27 -13 -5 1 -6 -3 -3 -8 8 -12 39 -7 43
6 2 6 -1 15 -8 19 -8 4 -9 3 -5 -4z"/>
<path d="M10840 3938 c0 -14 15 -16 27 -3 10 11 9 13 -7 12 -11 -1 -20 -5 -20
-9z"/>
<path d="M10770 3900 c-8 -5 -12 -11 -9 -14 2 -3 11 -1 19 4 8 5 12 11 9 14
-2 3 -11 1 -19 -4z"/>
<path d="M7473 3893 c-7 -2 -13 -10 -13 -15 0 -6 3 -8 6 -5 7 7 59 -92 56
-105 -1 -5 3 -8 9 -8 5 0 8 -4 4 -9 -3 -5 0 -13 6 -16 5 -4 8 -13 5 -21 -3 -8
0 -13 6 -11 7 1 15 -11 19 -28 4 -16 7 -25 8 -20 1 6 8 -5 16 -24 8 -18 12
-37 9 -42 -3 -5 0 -9 5 -9 6 0 10 -5 9 -11 -2 -6 3 -14 10 -16 6 -3 12 1 12 7
0 15 -69 158 -79 164 -4 3 -13 23 -21 45 -7 23 -16 41 -20 41 -4 0 -11 16 -14
35 -4 19 -11 35 -17 35 -6 0 -7 5 -4 10 7 11 6 11 -12 3z"/>
<path d="M10690 3879 c0 -9 -6 -16 -12 -16 -28 -2 -85 -13 -118 -23 -19 -5
-51 -10 -70 -10 -20 0 -41 -5 -47 -11 -10 -10 -35 -15 -100 -21 -7 -1 -13 -5
-13 -10 0 -5 -4 -7 -8 -4 -5 3 -31 -2 -58 -10 -27 -8 -69 -17 -94 -20 -25 -3
-66 -11 -93 -19 -26 -8 -51 -14 -55 -15 -4 0 -25 -5 -46 -11 -21 -6 -47 -9
-56 -6 -9 2 -26 0 -36 -6 -10 -6 -23 -12 -29 -13 -28 -5 -215 -46 -247 -55
-21 -5 -38 -15 -38 -21 0 -14 -40 -48 -57 -48 -7 0 -78 -16 -157 -35 -134 -33
-172 -35 -187 -13 -3 5 -43 0 -89 -11 -98 -24 -124 -18 -136 31 -4 18 -8 35
-9 38 -1 3 -5 18 -10 34 -5 20 -4 31 5 36 9 6 2 11 -22 15 -39 7 -60 3 -123
-25 -22 -10 -57 -25 -77 -33 -42 -18 -49 -27 -18 -24 11 1 20 5 20 10 0 4 6 7
13 6 30 -4 48 2 41 13 -5 8 -2 9 10 5 10 -4 15 -3 11 3 -6 9 7 13 47 13 10 0
15 4 12 8 -3 5 -1 9 5 9 5 0 12 -4 16 -10 3 -5 11 -7 18 -4 7 2 12 -6 13 -23
1 -16 4 -39 8 -53 4 -14 7 -37 7 -53 0 -15 4 -25 9 -22 4 3 10 0 12 -6 5 -14
58 -21 58 -7 0 7 4 7 13 0 9 -8 20 -7 39 2 15 8 28 12 30 10 3 -2 18 0 36 5
19 6 32 6 34 0 2 -6 10 -11 18 -12 8 -2 20 -6 27 -10 6 -4 19 0 27 9 12 11 16
12 16 2 0 -8 3 -9 8 -3 7 10 32 16 65 16 9 0 17 4 17 8 0 4 10 7 23 6 12 -1
34 4 48 11 14 7 34 11 45 10 10 -2 28 1 39 7 11 6 29 12 39 14 11 2 28 11 38
20 10 9 18 12 18 7 0 -5 9 6 20 24 17 28 23 32 35 22 8 -7 15 -8 15 -3 0 10
12 12 64 14 17 0 35 3 40 7 6 3 18 7 26 9 8 1 38 9 65 17 28 9 70 17 95 19 25
1 52 7 60 12 18 11 38 17 65 16 10 0 25 5 32 11 9 8 13 7 13 -2 0 -10 3 -10
15 0 12 10 56 19 112 23 7 0 10 4 7 9 -3 4 3 9 13 9 63 5 194 30 208 40 11 8
86 24 98 21 4 -1 7 3 7 9 0 5 4 7 10 4 5 -3 27 -1 47 4 21 6 57 15 81 21 23 6
42 15 42 20 0 5 -7 7 -16 3 -9 -3 -20 0 -25 8 -7 12 -9 11 -9 -2z"/>
<path d="M7970 3709 c0 -5 -4 -7 -10 -4 -5 3 -10 1 -10 -4 0 -6 7 -11 15 -11
8 0 15 7 15 15 0 8 -2 15 -5 15 -3 0 -5 -5 -5 -11z"/>
<path d="M8010 3709 c0 -8 49 -9 54 0 2 3 -9 6 -25 6 -16 1 -29 -2 -29 -6z"/>
<path d="M8086 3708 c3 -5 10 -6 15 -3 13 9 11 12 -6 12 -8 0 -12 -4 -9 -9z"/>
<path d="M7911 3683 c-16 -15 -19 -23 -10 -23 8 0 20 9 27 21 18 29 12 30 -17
2z"/>
<path d="M8080 3666 c0 -2 6 -9 14 -15 11 -9 16 -9 22 0 4 8 3 9 -4 5 -7 -4
-12 -2 -12 3 0 6 -4 11 -10 11 -5 0 -10 -2 -10 -4z"/>
<path d="M12416 3614 c1 -14 7 -31 13 -37 7 -7 9 -1 5 19 -7 38 -22 53 -18 18z"/>
<path d="M8003 3613 c-8 -3 -9 -12 -4 -26 4 -12 6 -27 4 -33 -2 -6 6 -14 19
-17 24 -7 38 0 22 11 -6 4 -14 21 -20 38 -5 17 -14 29 -21 27z"/>
<path d="M7924 3565 c-4 -8 -11 -12 -16 -9 -6 4 -9 1 -6 -6 2 -8 11 -16 19
-18 8 -3 11 -1 7 3 -4 4 -3 16 3 26 5 11 7 19 4 19 -3 0 -8 -7 -11 -15z"/>
<path d="M8646 3573 c-4 -5 -11 -8 -14 -9 -38 -6 -74 -19 -79 -27 -4 -6 0 -8
10 -4 9 3 34 11 56 17 23 6 41 15 41 20 0 12 -4 13 -14 3z"/>
<path d="M8150 3561 c0 -5 15 -12 34 -15 44 -8 62 -29 41 -46 -17 -14 -21 -35
-4 -24 8 4 8 1 1 -12 -5 -11 -6 -28 -1 -39 4 -11 8 -16 8 -11 1 6 7 2 14 -7 8
-11 17 -14 26 -8 11 7 10 15 -10 42 -12 18 -18 29 -11 25 8 -5 10 -2 6 8 -3 9
-11 16 -16 16 -6 0 -5 7 2 15 11 13 10 18 -5 29 -10 7 -15 18 -11 24 9 16 -7
15 -22 0 -9 -9 -12 -9 -12 0 0 7 -9 12 -20 12 -11 0 -20 -4 -20 -9z"/>
<path d="M8060 3547 c0 -10 8 -17 18 -17 9 0 13 4 7 8 -5 4 -13 11 -17 16 -5
5 -8 2 -8 -7z"/>
<path d="M12430 3550 c0 -5 5 -10 11 -10 5 0 7 5 4 10 -3 6 -8 10 -11 10 -2 0
-4 -4 -4 -10z"/>
<path d="M8490 3520 c0 -6 7 -10 15 -10 8 0 15 2 15 4 0 2 -7 6 -15 10 -8 3
-15 1 -15 -4z"/>
<path d="M12445 3500 c3 -5 8 -10 11 -10 2 0 4 5 4 10 0 6 -5 10 -11 10 -5 0
-7 -4 -4 -10z"/>
<path d="M8170 3485 c-7 -8 -17 -12 -23 -8 -6 3 -7 1 -3 -6 6 -9 11 -9 21 -1
8 7 19 9 24 5 7 -3 8 0 5 9 -8 20 -9 20 -24 1z"/>
<path d="M8510 3480 c0 -11 4 -20 9 -20 5 0 7 9 4 20 -3 11 -7 20 -9 20 -2 0
-4 -9 -4 -20z"/>
<path d="M12455 3470 c3 -5 8 -10 11 -10 2 0 4 5 4 10 0 6 -5 10 -11 10 -5 0
-7 -4 -4 -10z"/>
<path d="M6265 3459 c4 -5 13 -9 21 -9 8 0 14 -5 14 -12 0 -6 2 -9 5 -6 11 10
-6 34 -25 35 -11 1 -18 -2 -15 -8z"/>
<path d="M6320 3440 c0 -6 5 -10 11 -10 5 0 7 -5 3 -12 -4 -7 -3 -8 4 -4 16
10 15 23 -3 30 -8 3 -15 1 -15 -4z"/>
<path d="M7828 3438 c-29 -10 -35 -22 -18 -33 6 -3 10 -1 10 5 0 7 7 9 17 6
15 -6 32 8 33 27 0 9 -8 8 -42 -5z"/>
<path d="M8020 3440 c0 -5 5 -10 11 -10 5 0 7 5 4 10 -3 6 -8 10 -11 10 -2 0
-4 -4 -4 -10z"/>
<path d="M7887 3433 c-4 -3 -7 -11 -7 -17 0 -6 5 -5 12 2 6 6 9 14 7 17 -3 3
-9 2 -12 -2z"/>
<path d="M7914 3428 c3 -17 27 -21 46 -9 21 14 5 24 -18 12 -14 -7 -22 -7 -25
-1 -3 6 -4 5 -3 -2z"/>
<path d="M8530 3424 c0 -13 -69 -34 -121 -37 -23 -1 -35 -6 -32 -13 2 -7 15
-11 28 -10 13 0 21 5 17 10 -3 5 2 7 11 3 9 -3 39 2 66 11 40 14 48 20 41 32
-5 8 -10 10 -10 4z"/>
<path d="M12474 3394 c2 -16 7 -27 12 -24 10 5 7 31 -6 44 -5 5 -8 -4 -6 -20z"/>
<path d="M7893 3403 c-15 -5 -17 -23 -4 -23 5 0 11 7 15 15 3 8 4 15 3 14 -1
0 -8 -3 -14 -6z"/>
<path d="M11452 3385 c4 -7 5 -15 1 -18 -3 -4 -1 -8 5 -8 21 -2 27 -4 39 -12
6 -4 14 -3 18 3 6 9 2 12 -27 14 -7 1 -20 8 -28 16 -8 9 -12 11 -8 5z"/>
<path d="M7795 3370 c3 -5 8 -10 11 -10 2 0 4 5 4 10 0 6 -5 10 -11 10 -5 0
-7 -4 -4 -10z"/>
<path d="M7805 3340 c3 -5 8 -10 11 -10 2 0 4 5 4 10 0 6 -5 10 -11 10 -5 0
-7 -4 -4 -10z"/>
<path d="M12487 3329 c4 -15 8 -17 14 -8 8 14 3 29 -11 29 -4 0 -6 -9 -3 -21z"/>
<path d="M7936 3318 c3 -5 10 -6 15 -3 13 9 11 12 -6 12 -8 0 -12 -4 -9 -9z"/>
<path d="M7740 3316 c0 -2 8 -10 18 -17 15 -13 16 -12 3 4 -13 16 -21 21 -21
13z"/>
<path d="M12506 3293 c-6 -14 -5 -15 5 -6 7 7 10 15 7 18 -3 3 -9 -2 -12 -12z"/>
<path d="M12515 3259 c-4 -6 -5 -12 -2 -15 2 -3 7 2 10 11 7 17 1 20 -8 4z"/>
<path d="M7780 3247 c0 -16 32 -19 48 -4 14 15 13 16 -16 14 -18 -1 -32 -6
-32 -10z"/>
<path d="M12518 3213 c7 -3 16 -2 19 1 4 3 -2 6 -13 5 -11 0 -14 -3 -6 -6z"/>
<path d="M6587 3201 c2 -2 -6 -11 -17 -18 -11 -8 -17 -19 -14 -25 4 -7 10 -5
15 4 5 10 18 14 34 10 21 -4 24 -1 18 14 -4 12 -8 14 -11 5 -3 -9 -6 -9 -16 1
-6 7 -10 11 -9 9z"/>
<path d="M6883 3204 c4 -4 -5 -14 -20 -21 -26 -12 -26 -13 -3 -7 14 3 33 6 43
7 22 2 22 4 -5 18 -13 6 -20 8 -15 3z"/>
<path d="M12483 3197 c-25 -32 -25 -37 1 -25 27 12 33 23 17 32 -5 3 -13 0
-18 -7z"/>
<path d="M12520 3190 c0 -5 5 -10 11 -10 5 0 7 5 4 10 -3 6 -8 10 -11 10 -2 0
-4 -4 -4 -10z"/>
<path d="M6432 3168 c-15 -15 -15 -28 -1 -28 5 0 7 5 4 10 -3 6 1 10 9 10 9 0
16 -8 16 -17 0 -15 2 -15 9 -4 6 9 4 19 -4 28 -17 16 -18 16 -33 1z"/>
<path d="M6618 3153 c7 -3 16 -2 19 1 4 3 -2 6 -13 5 -11 0 -14 -3 -6 -6z"/>
<path d="M12475 3120 c3 -5 8 -10 11 -10 2 0 4 5 4 10 0 6 -5 10 -11 10 -5 0
-7 -4 -4 -10z"/>
<path d="M6470 3095 c0 -8 2 -15 4 -15 2 0 6 7 10 15 3 8 1 15 -4 15 -6 0 -10
-7 -10 -15z"/>
<path d="M6364 3075 c-12 -9 -10 -11 14 -13 16 -1 34 4 40 11 9 10 5 13 -14
13 -14 0 -32 -5 -40 -11z"/>
<path d="M6655 3081 c-6 -11 13 -26 22 -17 4 3 1 6 -6 6 -7 0 -9 5 -6 10 3 6
4 10 1 10 -3 0 -7 -4 -11 -9z"/>
<path d="M6516 3055 c-14 -10 -23 -12 -32 -4 -9 7 -12 6 -10 -5 3 -23 14 -30
28 -19 7 6 20 9 28 8 9 -2 17 5 17 16 2 23 -5 23 -31 4z"/>
<path d="M6670 3020 c0 -5 4 -10 9 -10 6 0 13 5 16 10 3 6 -1 10 -9 10 -9 0
-16 -4 -16 -10z"/>
<path d="M11530 2860 c0 -5 5 -10 11 -10 5 0 7 5 4 10 -3 6 -8 10 -11 10 -2 0
-4 -4 -4 -10z"/>
<path d="M12694 2552 c3 -5 0 -13 -6 -15 -9 -4 -10 -6 -1 -6 17 -1 25 16 12
25 -7 4 -9 3 -5 -4z"/>
<path d="M12772 2085 c2 -5 -1 -12 -7 -13 -21 -7 -34 -24 -28 -38 3 -7 10 -11
15 -8 6 4 5 10 -3 15 -10 6 -8 9 8 9 27 0 39 18 23 33 -6 7 -10 8 -8 2z"/>
<path d="M12136 2053 c-7 -7 -27 -13 -60 -16 -11 -1 -21 -9 -23 -17 -4 -13 -3
-13 6 0 6 8 11 10 11 4 0 -6 16 -11 35 -11 19 0 35 5 35 10 0 5 7 7 15 3 13
-4 14 -2 5 14 -12 22 -14 23 -24 13z"/>
<path d="M11993 2017 c-3 -5 0 -14 7 -20 10 -9 11 -9 6 1 -9 14 6 16 20 2 6
-6 10 -3 10 9 0 20 -32 25 -43 8z"/>
<path d="M11918 2013 c-10 -2 -18 -8 -18 -12 0 -12 44 -8 52 4 5 6 8 5 8 -3 0
-7 5 -10 10 -7 30 19 -4 31 -52 18z"/>
<path d="M6923 2003 c-15 -5 -17 -23 -4 -23 5 0 11 7 15 15 3 8 4 15 3 14 -1
0 -8 -3 -14 -6z"/>
<path d="M12080 1991 c0 -7 -5 -9 -12 -5 -7 5 -8 3 -3 -5 5 -9 10 -10 18 -2 6
6 8 14 4 18 -4 3 -7 1 -7 -6z"/>
<path d="M12736 1992 c-3 -5 1 -9 9 -9 8 0 12 4 9 9 -3 4 -7 8 -9 8 -2 0 -6
-4 -9 -8z"/>
<path d="M6886 1982 c-3 -6 -19 -9 -35 -8 -17 1 -28 -2 -25 -6 3 -4 15 -8 27
-8 26 0 54 16 45 25 -3 4 -9 2 -12 -3z"/>
<path d="M11910 1975 c0 -2 9 -9 20 -15 16 -9 18 -8 14 5 -5 13 -34 22 -34 10z"/>
<path d="M11885 1952 c-6 -4 -11 -13 -13 -21 -3 -12 -1 -12 15 -1 10 8 19 15
21 16 2 1 -1 4 -5 7 -5 3 -13 3 -18 -1z"/>
<path d="M12053 1934 c0 -11 7 -26 14 -33 17 -15 16 -3 -2 29 -12 22 -14 23
-12 4z"/>
<path d="M12749 1897 c6 -8 7 -18 3 -22 -4 -5 -1 -5 6 -1 10 6 10 11 1 22 -6
8 -14 14 -16 14 -3 0 0 -6 6 -13z"/>
<path d="M12040 1890 c0 -5 5 -10 11 -10 5 0 7 5 4 10 -3 6 -8 10 -11 10 -2 0
-4 -4 -4 -10z"/>
<path d="M12096 1883 c-6 -14 -5 -15 5 -6 7 7 10 15 7 18 -3 3 -9 -2 -12 -12z"/>
<path d="M12623 1865 c0 -7 6 -12 14 -11 19 3 21 19 2 21 -9 2 -16 -3 -16 -10z"/>
<path d="M12760 1786 c0 -2 7 -7 16 -10 8 -3 12 -2 9 4 -6 10 -25 14 -25 6z"/>
<path d="M12269 1668 c-6 -13 -8 -20 -4 -16 5 4 13 3 20 -2 8 -7 12 -5 12 5 0
8 -5 11 -10 8 -6 -4 -8 0 -4 10 9 25 0 21 -14 -5z"/>
<path d="M12640 1645 c0 -6 7 -12 15 -12 8 0 15 6 15 12 0 6 -7 12 -15 12 -8
0 -15 -6 -15 -12z"/>
<path d="M12706 1241 c-4 -6 -13 -8 -21 -4 -8 3 -15 0 -15 -7 0 -6 -4 -9 -8
-6 -4 2 -14 0 -22 -5 -11 -7 1 -9 39 -5 61 5 67 9 47 25 -9 8 -16 8 -20 2z"/>
<path d="M12686 912 c-3 -5 1 -9 9 -9 8 0 12 4 9 9 -3 4 -7 8 -9 8 -2 0 -6 -4
-9 -8z"/>
<path d="M12716 743 c-6 -14 -5 -15 5 -6 7 7 10 15 7 18 -3 3 -9 -2 -12 -12z"/>
<path d="M12677 668 c-10 -10 -22 -16 -27 -13 -6 4 -10 3 -10 -2 0 -8 -27 -13
-82 -16 -16 -1 -26 -6 -24 -12 2 -5 16 -8 32 -6 16 2 45 4 64 5 19 0 41 7 48
14 8 7 17 10 22 7 4 -3 14 3 21 12 8 10 9 14 2 10 -6 -4 -15 -1 -20 6 -6 10
-12 9 -26 -5z"/>
<path d="M11960 600 c0 -13 18 -22 24 -11 3 5 -1 11 -9 15 -8 3 -15 1 -15 -4z"/>
<path d="M11905 589 c-4 -6 -4 -13 -1 -16 3 -4 6 -1 6 5 0 6 8 13 18 15 15 4
15 5 0 6 -9 0 -20 -4 -23 -10z"/>
<path d="M11875 580 c-4 -6 -10 -8 -15 -5 -5 3 -11 1 -15 -5 -10 -16 21 -12
35 5 7 8 10 15 7 15 -3 0 -9 -5 -12 -10z"/>
<path d="M11752 559 c-11 -17 -11 -20 0 -13 7 5 26 9 41 10 30 2 44 10 34 20
-4 4 -14 1 -23 -7 -13 -11 -18 -11 -21 -1 -7 18 -16 15 -31 -9z"/>
<path d="M11414 525 c-10 -8 -14 -15 -8 -15 6 0 17 7 24 15 16 19 9 19 -16 0z"/>
<path d="M11306 503 c-6 -14 -5 -15 5 -6 7 7 10 15 7 18 -3 3 -9 -2 -12 -12z"/>
<path d="M11355 510 c-3 -5 -1 -10 4 -10 6 0 11 5 11 10 0 6 -2 10 -4 10 -3 0
-8 -4 -11 -10z"/>
</g>
</svg>
